<svg xmlns="http://www.w3.org/2000/svg" xmlns:xlink="http://www.w3.org/1999/xlink" width="853" zoomAndPan="magnify" viewBox="0 0 639.75 561.000005" height="748" preserveAspectRatio="xMidYMid meet" version="1.0"><defs><g/><clipPath id="8c5b7fa532"><path d="M 57 307 L 330 307 L 330 560 L 57 560 Z M 57 307 " clip-rule="nonzero"/></clipPath><clipPath id="ea85a98b40"><path d="M 105 310 L 366 310 L 366 560 L 105 560 Z M 105 310 " clip-rule="nonzero"/></clipPath><clipPath id="7736d1f53e"><path d="M 139 290 L 384 290 L 384 560 L 139 560 Z M 139 290 " clip-rule="nonzero"/></clipPath><clipPath id="f1585a0be0"><path d="M 162 302 L 423 302 L 423 560 L 162 560 Z M 162 302 " clip-rule="nonzero"/></clipPath><clipPath id="eaf6f14a70"><path d="M 203 301 L 462 301 L 462 560 L 203 560 Z M 203 301 " clip-rule="nonzero"/></clipPath><clipPath id="9b10b2b0e5"><path d="M 241 289 L 502 289 L 502 560 L 241 560 Z M 241 289 " clip-rule="nonzero"/></clipPath><clipPath id="3f3c1acd93"><path d="M 279 312 L 539 312 L 539 560 L 279 560 Z M 279 312 " clip-rule="nonzero"/></clipPath><clipPath id="a1cf73c74a"><path d="M 316 324 L 576 324 L 576 560 L 316 560 Z M 316 324 " clip-rule="nonzero"/></clipPath></defs><path fill="#e6e6e6" d="M 549.152344 349.683594 C 549.152344 349.683594 568.914062 360.351562 550.628906 385.804688 C 533.679688 409.394531 479.144531 441.09375 331.023438 411.605469 C 331.023438 411.605469 173.875 493.265625 152.6875 492.695312 C 131.5 492.128906 81.941406 475.742188 81.941406 459.523438 C 81.941406 443.304688 174.058594 427.824219 174.058594 427.824219 L 269.859375 346.734375 Z M 549.152344 349.683594 " fill-opacity="1" fill-rule="nonzero"/><path fill="#ed4450" d="M 502.6875 200.480469 C 502.6875 200.480469 525.152344 226.609375 540.820312 242.808594 C 556.492188 259.007812 571.121094 286.707031 565.375 319.105469 C 559.628906 351.503906 544.476562 363 537.164062 366.136719 C 537.164062 366.136719 535.597656 369.792969 531.941406 369.269531 C 531.941406 369.269531 519.402344 387.558594 497.464844 398.011719 C 475.523438 408.460938 433.210938 413.164062 365.300781 411.597656 C 297.390625 410.03125 259.777344 393.878906 245.152344 386.539062 C 230.527344 379.199219 207.019531 339.484375 223.214844 296.113281 C 239.410156 252.738281 313.0625 243.332031 313.0625 243.332031 L 336.570312 243.855469 C 336.570312 243.855469 367.914062 165.46875 409.183594 159.722656 C 450.449219 153.972656 484.925781 180.101562 502.6875 200.480469 Z M 502.6875 200.480469 " fill-opacity="1" fill-rule="nonzero"/><path fill="#c02328" d="M 309.390625 400.152344 C 319.503906 402.421875 329.566406 398.585938 338.699219 394.523438 C 347.390625 390.664062 355.777344 386.148438 363.972656 381.324219 C 376.449219 373.972656 388.488281 365.914062 400.730469 358.183594 C 400.347656 356.875 400.109375 355.511719 399.691406 354.207031 C 398.984375 352 398.042969 349.890625 396.925781 347.863281 C 396.425781 346.960938 397.785156 346.164062 398.308594 347.054688 C 399.976562 349.914062 401.949219 353.613281 402.410156 357.136719 C 405.753906 355.035156 409.113281 352.960938 412.503906 350.941406 C 428.621094 341.34375 445.6875 332.902344 463.914062 328.164062 C 480.914062 323.746094 500.320312 322.113281 517.183594 328.023438 C 520.046875 329.027344 522.851562 330.324219 525.445312 331.9375 C 534.054688 316.816406 543.585938 299.265625 538.34375 281.375 C 535.976562 273.292969 530.40625 266.75 526.390625 259.488281 C 522.257812 252.019531 521.664062 243.53125 518.1875 235.859375 C 514.277344 227.230469 506.644531 221.648438 499.464844 215.914062 C 498.824219 215.402344 499.660156 214.332031 500.339844 214.777344 C 506.964844 219.144531 513.503906 224.46875 517.816406 231.214844 C 522.757812 238.949219 523.078125 248.425781 527.15625 256.535156 C 530.96875 264.113281 536.664062 270.648438 539.625 278.667969 C 542.734375 287.085938 542.320312 296.433594 540.0625 305.003906 C 537.425781 315.027344 532.28125 324.148438 527.183594 333.089844 C 531.019531 335.816406 534.238281 339.324219 536.203125 343.730469 C 539.28125 350.648438 539.222656 359.125 534.054688 365.015625 C 533.601562 365.53125 532.679688 364.839844 533.09375 364.273438 C 537.800781 357.785156 537.316406 349.125 533.367188 342.367188 C 529.101562 335.0625 520.988281 330.980469 513.089844 328.847656 C 495.613281 324.132812 476.605469 326.414062 459.503906 331.5625 C 438.878906 337.769531 420.390625 348.320312 402.320312 359.675781 C 402.210938 359.804688 402.058594 359.894531 401.902344 359.9375 C 389.203125 367.925781 376.703125 376.296875 363.808594 383.824219 C 355.054688 388.933594 346.074219 393.667969 336.738281 397.621094 C 327.929688 401.359375 318.441406 404.304688 308.839844 402.152344 C 307.539062 401.859375 308.089844 399.859375 309.390625 400.152344 Z M 309.390625 400.152344 " fill-opacity="0.6" fill-rule="nonzero"/><path fill="#842a2e" d="M 324.292969 408.628906 C 281.753906 403.261719 256.511719 392.242188 245.152344 386.539062 C 243.539062 385.730469 241.820312 384.527344 240.054688 382.96875 L 260.566406 330.339844 L 352.503906 305.777344 L 373.398438 338.699219 C 373.398438 338.699219 336.308594 358.035156 324.296875 378.9375 C 312.285156 399.835938 320.632812 405.921875 324.292969 408.628906 Z M 324.292969 408.628906 " fill-opacity="1" fill-rule="nonzero"/><path fill="#842a2e" d="M 496.417969 223.996094 C 488.582031 237.585938 486.496094 254.828125 486.496094 254.828125 L 466.121094 228.179688 L 472.390625 187.941406 L 487.109375 185.304688 C 493.175781 190.347656 498.417969 195.582031 502.6875 200.480469 C 502.6875 200.480469 506.199219 204.566406 511.414062 210.503906 C 511.414062 210.503906 504.253906 210.410156 496.417969 223.996094 Z M 496.417969 223.996094 " fill-opacity="1" fill-rule="nonzero"/><path fill="#c02328" d="M 313.0625 243.332031 L 317.234375 243.425781 L 313.0625 289.316406 L 219.589844 343.902344 C 216.621094 329.710938 216.835938 313.195312 223.214844 296.113281 C 239.410156 252.738281 313.0625 243.332031 313.0625 243.332031 Z M 313.0625 243.332031 " fill-opacity="0.6" fill-rule="nonzero"/><path fill="#842a2e" d="M 430.078125 314.402344 C 430.078125 314.402344 441.046875 291.929688 468.734375 293.5 C 480.742188 294.179688 495.375 297.15625 495.375 294.542969 C 495.375 291.929688 489.105469 286.707031 489.105469 286.707031 L 433.210938 271.550781 L 418.0625 296.632812 L 424.402344 319.113281 Z M 430.078125 314.402344 " fill-opacity="1" fill-rule="nonzero"/><path fill="#333333" d="M 312.460938 241.832031 C 311.210938 241.871094 309.9375 241.953125 308.769531 242.394531 C 306.632812 243.203125 304.683594 244.757812 303.417969 246.652344 C 302.851562 247.5 302.359375 248.472656 301.464844 248.964844 C 301.074219 249.179688 300.628906 249.285156 300.191406 249.386719 C 299.003906 249.664062 297.855469 249.96875 296.644531 250.085938 C 295.429688 250.203125 294.03125 250.691406 292.84375 250.691406 C 292.484375 250.792969 292.105469 250.925781 291.871094 251.21875 C 291.21875 252.03125 292.113281 253.164062 292.945312 253.789062 C 295.519531 255.722656 298.238281 257.472656 301.0625 259.015625 C 301.457031 259.230469 301.863281 259.445312 302.304688 259.53125 C 303.289062 259.722656 304.269531 259.253906 305.15625 258.792969 C 313.097656 254.667969 320.910156 249.675781 326.027344 242.332031 C 326.679688 241.394531 329.117188 240.242188 327.691406 240.195312 C 326.542969 240.160156 322.65625 241.042969 321.449219 241.265625 C 318.488281 241.816406 315.457031 241.730469 312.460938 241.832031 Z M 312.460938 241.832031 " fill-opacity="1" fill-rule="nonzero"/><path fill="#1a1a1a" d="M 401.523438 140.238281 C 401.007812 140.238281 380.4375 140.753906 380.4375 140.753906 L 370.667969 169.046875 L 399.980469 177.792969 Z M 401.523438 140.238281 " fill-opacity="1" fill-rule="nonzero"/><path fill="#f1e6dc" d="M 393.808594 163.902344 C 393.808594 163.902344 384.039062 164.929688 376.839844 160.300781 C 369.640625 155.671875 341.359375 186.535156 341.359375 186.535156 L 330.558594 251.351562 L 426.71875 281.1875 L 444.203125 262.667969 L 444.203125 162.875 L 408.207031 167.503906 Z M 393.808594 163.902344 " fill-opacity="1" fill-rule="nonzero"/><path fill="#1a1a1a" d="M 334.515625 227.476562 C 335.109375 224.445312 335.464844 221.363281 336.324219 218.394531 C 337.085938 215.757812 338.417969 213.042969 340.867188 211.800781 C 342.664062 210.890625 344.804688 210.921875 346.785156 211.3125 C 347.097656 210.488281 347.433594 209.675781 347.777344 208.863281 C 349.65625 210.832031 351.527344 212.808594 353.421875 214.753906 C 353.230469 215.066406 353.039062 215.378906 352.84375 215.691406 C 350.328125 219.667969 349.515625 224.683594 350.652344 229.25 C 346.628906 230.363281 343.445312 234.050781 342.933594 238.199219 C 342.828125 239.039062 342.824219 239.902344 342.566406 240.710938 C 341.90625 242.765625 339.824219 243.941406 338.101562 245.246094 C 336.511719 246.445312 335.113281 247.902344 333.976562 249.535156 C 333.472656 250.257812 332.609375 251.113281 331.882812 250.621094 C 331.53125 250.378906 331.425781 249.914062 331.363281 249.496094 C 330.246094 242.117188 333.078125 234.796875 334.515625 227.476562 Z M 334.515625 227.476562 " fill-opacity="1" fill-rule="nonzero"/><path fill="#d17754" d="M 394.835938 120.179688 C 394.835938 120.179688 384.554688 118.636719 380.4375 119.664062 C 376.324219 120.691406 374.78125 121.722656 373.753906 121.207031 C 372.726562 120.691406 357.300781 117.09375 357.300781 117.09375 L 359.128906 140.574219 C 359.128906 140.574219 370.667969 140.753906 373.238281 142.8125 C 375.8125 144.871094 385.582031 142.8125 385.582031 142.8125 L 392.265625 139.210938 Z M 394.835938 120.179688 " fill-opacity="1" fill-rule="nonzero"/><path fill="#f1e6dc" d="M 349.585938 112.460938 C 349.585938 112.460938 358.328125 111.433594 360.898438 113.492188 C 363.46875 115.546875 366.039062 125.835938 365.527344 132.007812 C 365.011719 138.183594 364.5 140.753906 364.5 140.753906 C 364.5 140.753906 353.183594 140.238281 350.613281 140.753906 C 348.042969 141.269531 342.902344 130.464844 342.902344 130.464844 Z M 349.585938 112.460938 " fill-opacity="1" fill-rule="nonzero"/><path fill="#4d4d4d" d="M 393.941406 145.195312 C 393.941406 145.195312 389.695312 140.238281 386.609375 147.441406 C 383.523438 154.644531 368.613281 190.136719 357.8125 208.65625 C 347.015625 227.175781 334.671875 241.0625 334.671875 241.0625 L 326.445312 241.0625 C 326.445312 241.0625 324.902344 236.433594 326.445312 235.40625 C 327.988281 234.375 330.558594 204.027344 329.53125 202.996094 C 328.503906 201.96875 293.535156 176.25 278.109375 152.585938 C 262.683594 128.921875 268.339844 117.09375 273.480469 112.976562 C 278.625 108.863281 309.992188 108.347656 326.960938 104.230469 C 343.929688 100.117188 346.5 98.058594 348.042969 99.601562 C 349.585938 101.144531 359.613281 126.609375 356.527344 140.496094 C 356.527344 140.496094 340.585938 142.554688 338.53125 142.554688 C 336.472656 142.554688 334.929688 140.496094 333.386719 141.527344 C 331.84375 142.554688 327.730469 142.554688 327.730469 142.554688 C 327.730469 142.554688 343.15625 153.871094 344.1875 155.929688 C 345.214844 157.988281 347.273438 161.074219 347.785156 159.015625 C 348.300781 156.957031 347.273438 149.757812 351.386719 149.242188 C 355.5 148.726562 357.554688 149.757812 359.097656 149.242188 C 360.640625 148.726562 367.324219 146.15625 367.324219 146.15625 C 367.324219 146.15625 368.355469 140.496094 372.980469 139.46875 C 377.609375 138.441406 389.4375 136.382812 392.523438 138.441406 C 395.609375 140.496094 393.941406 145.195312 393.941406 145.195312 Z M 393.941406 145.195312 " fill-opacity="1" fill-rule="nonzero"/><path fill="#333333" d="M 348.136719 216.332031 C 351.503906 204.722656 356.867188 193.769531 359.09375 181.824219 C 361.242188 170.3125 361.324219 158.296875 365.078125 147.117188 C 365.640625 145.4375 368.257812 146.125 367.75 147.851562 C 364.371094 159.367188 363.957031 171.304688 361.695312 183.027344 C 359.441406 194.695312 354.765625 206.285156 349.710938 216.996094 C 349.292969 217.890625 347.871094 217.257812 348.136719 216.332031 Z M 348.136719 216.332031 " fill-opacity="1" fill-rule="nonzero"/><path fill="#333333" d="M 328.5 203.078125 C 328.859375 199.488281 330.074219 195.882812 331.128906 192.445312 C 332.265625 188.738281 333.601562 185.121094 335.085938 181.542969 C 335.617188 180.257812 337.695312 180.734375 337.234375 182.132812 C 336.082031 185.640625 334.972656 189.171875 333.949219 192.722656 C 332.929688 196.246094 332.269531 199.988281 330.984375 203.414062 C 330.527344 204.644531 328.34375 204.609375 328.5 203.078125 Z M 328.5 203.078125 " fill-opacity="1" fill-rule="nonzero"/><path fill="#333333" d="M 287.375 119.867188 C 294.515625 121.117188 301.464844 124.511719 306.890625 129.3125 C 306.980469 129.394531 307.042969 129.480469 307.09375 129.566406 C 309.5 130.261719 311.886719 130.996094 314.175781 132.003906 C 319.226562 134.234375 324.183594 137.839844 328.113281 141.714844 C 329.164062 142.75 327.761719 144.714844 326.492188 143.816406 C 321.855469 140.515625 317.839844 136.578125 312.539062 134.269531 C 307.742188 132.175781 302.183594 131.773438 297.738281 128.902344 C 296.742188 128.261719 297.367188 126.390625 298.589844 126.875 C 299.632812 127.289062 300.6875 127.652344 301.75 127.992188 C 297.195312 125.039062 292.316406 122.964844 286.890625 121.625 C 285.734375 121.339844 286.238281 119.667969 287.375 119.867188 Z M 287.375 119.867188 " fill-opacity="1" fill-rule="nonzero"/><path fill="#333333" d="M 337.59375 176.046875 C 338.726562 171.347656 341.738281 167.074219 344.515625 163.207031 C 347.617188 158.890625 350.671875 154.476562 354.035156 150.359375 C 354.363281 149.953125 355.082031 150.496094 354.765625 150.925781 C 351.671875 155.117188 348.578125 159.3125 345.527344 163.542969 C 344.128906 165.484375 342.761719 167.453125 341.5625 169.527344 C 340.300781 171.703125 339.390625 173.953125 338.523438 176.304688 C 338.3125 176.878906 337.445312 176.660156 337.59375 176.046875 Z M 337.59375 176.046875 " fill-opacity="0.5" fill-rule="nonzero"/><path fill="#3f3f3f" d="M 291.648438 366.65625 C 291.648438 366.65625 287.46875 369.792969 285.902344 372.929688 C 284.332031 376.0625 280.15625 375.542969 278.066406 378.675781 C 275.976562 381.8125 240.453125 423.09375 217.992188 442.953125 C 195.527344 462.808594 170.453125 472.738281 170.453125 472.738281 L 150.605469 428.84375 L 151.648438 399.578125 L 286.945312 359.863281 Z M 291.648438 366.65625 " fill-opacity="1" fill-rule="nonzero"/><path fill="#333333" d="M 176.652344 453.929688 C 184.195312 451.019531 191.554688 448.003906 198.59375 443.984375 C 205.472656 440.0625 212.019531 435.574219 218.199219 430.632812 C 230.980469 420.414062 249.523438 406.328125 259.992188 393.789062 C 266.113281 386.460938 272.019531 378.953125 277.960938 371.480469 C 278.5 370.800781 279.695312 371.710938 279.171875 372.414062 C 259.453125 398.9375 230.367188 427.585938 201.492188 444.550781 C 193.878906 449.023438 185.621094 453.132812 177.070312 455.453125 C 176.074219 455.722656 175.726562 454.289062 176.652344 453.929688 Z M 176.652344 453.929688 " fill-opacity="0.7" fill-rule="nonzero"/><path fill="#92503d" d="M 105.15625 449.746094 C 105.15625 449.746094 123.960938 443.996094 129.710938 434.066406 C 135.457031 424.140625 125.007812 419.957031 120.304688 404.804688 C 115.605469 389.648438 128.140625 372.40625 126.050781 367.703125 C 123.960938 363 98.886719 354.636719 92.097656 340.007812 C 85.308594 325.375 86.875 313.878906 82.171875 307.085938 C 77.472656 300.292969 70.15625 299.769531 67.546875 300.816406 C 64.933594 301.859375 74.859375 374.496094 74.859375 374.496094 L 92.621094 431.457031 Z M 105.15625 449.746094 " fill-opacity="1" fill-rule="nonzero"/><path fill="#333333" d="M 90.40625 456.320312 C 90.40625 456.320312 105.15625 454.96875 106.203125 451.3125 C 107.246094 447.65625 105.679688 429.363281 98.367188 414.734375 C 91.050781 400.101562 83.21875 375.542969 80.082031 357.773438 C 76.949219 340.007812 73.292969 311.789062 71.203125 304.996094 C 69.113281 298.203125 64.847656 298.859375 62.019531 299.835938 C 59.1875 300.816406 64.410156 348.890625 64.410156 348.890625 L 83.738281 411.597656 Z M 90.40625 456.320312 " fill-opacity="1" fill-rule="nonzero"/><path fill="#1a1a1a" d="M 74.335938 407.941406 C 74.335938 407.941406 77.472656 430.933594 83.21875 445.5625 C 88.964844 460.195312 92.621094 457.582031 92.097656 451.3125 C 91.574219 445.042969 84.785156 421.003906 85.304688 420.480469 C 85.828125 419.957031 91.050781 418.390625 90.53125 416.300781 C 90.007812 414.210938 82.171875 397.488281 75.902344 366.136719 C 69.636719 334.78125 67.023438 300.816406 62.84375 299.769531 C 58.664062 298.722656 56.574219 318.058594 58.140625 335.304688 C 59.710938 352.546875 73.03125 387.300781 76.6875 396.183594 C 80.34375 405.066406 78.777344 405.066406 78.253906 405.589844 C 77.730469 406.109375 74.597656 407.679688 74.335938 407.941406 Z M 74.335938 407.941406 " fill-opacity="1" fill-rule="nonzero"/><path fill="#1a1a1a" d="M 427.988281 268.9375 C 427.988281 268.9375 413.359375 250.648438 384.109375 241.242188 C 354.855469 231.835938 336.570312 239.675781 336.570312 239.675781 L 422.765625 272.597656 Z M 427.988281 268.9375 " fill-opacity="1" fill-rule="nonzero"/><path fill="#4d4d4d" d="M 437.390625 267.371094 C 437.390625 267.371094 440.523438 297.679688 432.167969 309.175781 C 423.808594 320.671875 420.152344 324.851562 404.480469 330.078125 C 388.808594 335.304688 308.886719 360.910156 304.707031 363 C 300.527344 365.089844 295.824219 369.269531 291.648438 369.269531 C 287.46875 369.269531 285.378906 370.316406 281.199219 372.40625 C 277.019531 374.496094 186.648438 412.121094 152.171875 407.417969 C 117.695312 402.714844 123.441406 359.863281 123.441406 359.863281 C 123.441406 359.863281 161.574219 361.433594 164.1875 359.863281 C 166.796875 358.296875 175.679688 351.503906 181.6875 351.242188 C 185.484375 351.078125 190.566406 351.242188 195.265625 348.628906 C 199.96875 346.015625 238.101562 321.457031 238.101562 321.457031 C 238.101562 321.457031 265.265625 282.261719 268.402344 276.515625 C 271.535156 270.765625 271.535156 267.632812 278.324219 265.542969 C 285.117188 263.453125 289.816406 261.359375 301.832031 253.523438 C 313.847656 245.683594 326.125 239.152344 330.042969 238.890625 C 340.671875 238.179688 376.273438 242.289062 396.644531 253.785156 C 417.019531 265.28125 427.988281 272.597656 437.390625 267.371094 Z M 437.390625 267.371094 " fill-opacity="1" fill-rule="nonzero"/><path fill="#333333" d="M 239.410156 319.105469 C 248.859375 311.8125 257.273438 305 266.953125 298.019531 C 271.53125 294.71875 276.082031 291.339844 281.015625 288.585938 C 285.820312 285.90625 290.964844 284.109375 296.1875 282.4375 C 304.269531 279.851562 312.007812 276.609375 319.703125 273.171875 C 316.238281 271.757812 312.960938 270.238281 309.144531 269.558594 C 304.269531 268.6875 299.269531 268.792969 294.40625 269.710938 C 293.363281 269.910156 292.902344 268.335938 293.964844 268.097656 C 298.710938 267.035156 303.542969 266.796875 308.363281 267.476562 C 312.765625 268.097656 318.125 269.316406 321.914062 271.921875 C 320.753906 266.117188 311.339844 264.5 306.453125 263.792969 C 305.3125 263.625 305.574219 261.691406 306.726562 261.769531 C 312.738281 262.191406 322.953125 263.949219 324.660156 270.9375 C 325.8125 270.410156 326.96875 269.886719 328.125 269.355469 C 337.871094 264.902344 347.773438 260.605469 358.292969 258.34375 C 369.777344 255.875 381.542969 255.773438 392.5 260.34375 C 393.332031 260.691406 393.257812 261.824219 392.648438 262.117188 C 403.539062 264.597656 413.726562 270.136719 421.480469 278.320312 C 422.25 279.132812 421.046875 280.34375 420.25 279.550781 C 406.382812 265.769531 386.035156 259.730469 366.9375 264.140625 C 365.652344 264.4375 365.101562 262.464844 366.390625 262.15625 C 374.417969 260.246094 382.789062 260.160156 390.835938 261.734375 C 370.242188 254.925781 348.800781 263.113281 330.105469 271.789062 C 320.453125 276.269531 310.851562 280.910156 300.726562 284.238281 C 295.3125 286.019531 289.804688 287.5625 284.699219 290.144531 C 279.835938 292.601562 275.378906 295.769531 270.964844 298.949219 C 260.46875 306.503906 250.15625 314.417969 239.425781 321.640625 C 237.78125 322.75 237.921875 320.253906 239.410156 319.105469 Z M 239.410156 319.105469 " fill-opacity="1" fill-rule="nonzero"/><path fill="#333333" d="M 420.25 291.273438 C 422.503906 286.339844 425.308594 282.15625 425.03125 276.507812 C 424.949219 274.859375 427.648438 274.449219 427.953125 276.113281 C 428.800781 280.746094 426.867188 285.089844 424.765625 289.113281 C 422.09375 294.230469 420.222656 298.835938 419.875 304.667969 C 419.78125 306.214844 417.539062 306.226562 417.460938 304.667969 C 417.226562 300.015625 418.324219 295.492188 420.25 291.273438 Z M 420.25 291.273438 " fill-opacity="1" fill-rule="nonzero"/><path fill="#333333" d="M 322.542969 253.113281 C 323.25 247.707031 327.742188 243.152344 331.253906 239.332031 C 332.058594 238.457031 333.316406 239.742188 332.546875 240.625 C 330 243.539062 327.347656 246.515625 325.679688 250.042969 C 324.578125 252.378906 323.890625 255.03125 325.570312 257.269531 C 326.636719 258.695312 328.1875 259.539062 329.789062 260.226562 C 331.609375 251.722656 336.445312 243.976562 343.648438 238.921875 C 344.503906 238.320312 345.609375 239.726562 344.777344 240.382812 C 336.851562 246.601562 331.714844 255.554688 331.109375 265.695312 C 331.027344 267.023438 328.953125 267.03125 329.035156 265.695312 C 329.101562 264.554688 329.234375 263.425781 329.40625 262.300781 C 325.398438 260.960938 321.949219 257.621094 322.542969 253.113281 Z M 322.542969 253.113281 " fill-opacity="1" fill-rule="nonzero"/><path fill="#ed4450" d="M 434.515625 313.617188 C 434.515625 313.617188 425.636719 313.617188 420.414062 322.5 C 420.414062 322.5 384.371094 331.382812 373.398438 340.269531 C 362.429688 349.152344 371.308594 356.988281 371.308594 356.988281 L 432.949219 325.636719 Z M 434.515625 313.617188 " fill-opacity="1" fill-rule="nonzero"/><path fill="#c02328" d="M 428.421875 314.441406 C 432.574219 312.195312 438.09375 312.710938 442.613281 313.355469 C 443.472656 313.476562 443.476562 314.453125 442.613281 314.402344 C 438.308594 314.144531 433.351562 314.136719 429.328125 315.992188 C 428.296875 316.46875 427.386719 315 428.421875 314.441406 Z M 428.421875 314.441406 " fill-opacity="1" fill-rule="nonzero"/><path fill="#c02328" d="M 420.792969 321.625 C 422.710938 321.125 424.621094 321.019531 426.585938 321.300781 C 427.570312 321.441406 427.351562 323.175781 426.347656 323.054688 C 424.628906 322.851562 422.882812 322.347656 421.195312 322.761719 C 420.09375 323.03125 419.691406 321.910156 420.792969 321.625 Z M 420.792969 321.625 " fill-opacity="1" fill-rule="nonzero"/><path fill="#333333" d="M 151.113281 387.417969 C 169.8125 388.675781 188.035156 383.3125 205.675781 377.765625 C 223.210938 372.25 247.8125 363.839844 264.769531 356.742188 C 269.257812 354.867188 273.699219 352.871094 278.171875 350.957031 C 281.855469 349.378906 285.519531 348.523438 289.398438 347.597656 C 293.539062 346.613281 297.152344 344.5 300.757812 342.316406 C 304.46875 340.074219 308.242188 338.011719 312.203125 336.242188 C 328.023438 329.164062 344.96875 324.488281 361.332031 318.851562 C 380.375 312.292969 399.738281 305.347656 417.589844 295.941406 C 418.09375 295.675781 418.542969 296.441406 418.039062 296.710938 C 410.273438 300.859375 402.558594 304.847656 394.425781 308.261719 C 386.09375 311.757812 377.632812 314.9375 369.117188 317.964844 C 352.324219 323.941406 335.179688 329.085938 318.597656 335.640625 C 314.296875 337.339844 310.066406 339.230469 306.023438 341.480469 C 302.382812 343.503906 298.953125 345.921875 295.160156 347.664062 C 291.492188 349.347656 287.585938 349.765625 283.769531 350.945312 C 279.246094 352.339844 274.957031 354.550781 270.617188 356.417969 C 253.804688 363.660156 229.355469 372.222656 211.949219 377.890625 C 192.390625 384.257812 171.941406 390.855469 151.113281 389.449219 C 149.816406 389.363281 149.808594 387.328125 151.113281 387.417969 Z M 151.113281 387.417969 " fill-opacity="0.5" fill-rule="nonzero"/><path fill="#333333" d="M 310.398438 279.292969 C 342.515625 275.097656 395.664062 271.550781 395.664062 271.550781 L 397.066406 271.996094 C 397.066406 271.996094 410.609375 277.4375 410.609375 281.125 C 410.609375 284.808594 379.660156 292.183594 376.710938 294.394531 C 373.765625 296.605469 363.449219 306.925781 356.078125 309.136719 C 348.710938 311.347656 336.347656 293.71875 294.261719 287.421875 C 292.816406 287.207031 291.597656 286.984375 290.578125 286.761719 C 297.238281 284.414062 303.90625 282.09375 310.398438 279.292969 Z M 310.398438 279.292969 " fill-opacity="0.5" fill-rule="nonzero"/><path fill="#333333" d="M 238.535156 320.832031 C 242.011719 315.808594 265.5 281.835938 268.402344 276.515625 C 271.535156 270.765625 271.535156 267.632812 278.324219 265.542969 C 278.367188 265.53125 278.40625 265.515625 278.445312 265.503906 L 294.054688 284.613281 C 294.054688 284.613281 283.121094 289.234375 275.015625 294.394531 C 268.523438 298.527344 246.882812 314.601562 238.535156 320.832031 Z M 238.535156 320.832031 " fill-opacity="0.5" fill-rule="nonzero"/><path fill="#1a1a1a" d="M 163.664062 417.347656 C 163.664062 417.347656 174.632812 439.292969 169.933594 453.925781 C 165.230469 468.558594 153.738281 449.222656 153.738281 449.222656 L 150.605469 428.84375 Z M 163.664062 417.347656 " fill-opacity="1" fill-rule="nonzero"/><path fill="#92503d" d="M 162.097656 390.695312 C 162.097656 390.695312 161.574219 407.417969 165.230469 421.003906 C 168.886719 434.589844 167.320312 451.3125 167.320312 451.3125 L 143.8125 435.113281 L 149.035156 400.625 Z M 162.097656 390.695312 " fill-opacity="1" fill-rule="nonzero"/><path fill="#333333" d="M 162.355469 436.417969 C 162.355469 436.417969 158.179688 426.492188 159.222656 417.605469 C 160.269531 408.722656 165.492188 388.867188 160.789062 364.304688 C 156.089844 339.746094 138.851562 321.457031 127.359375 320.933594 C 115.867188 320.410156 105.941406 339.746094 102.804688 364.828125 C 99.671875 389.910156 109.074219 422.832031 117.957031 437.988281 C 126.835938 453.140625 129.449219 466.207031 131.015625 471.953125 C 132.582031 477.703125 136.238281 492.855469 152.433594 492.332031 C 168.625 491.8125 174.371094 479.792969 174.371094 468.296875 C 174.371094 456.800781 164.445312 436.941406 164.445312 436.941406 Z M 162.355469 436.417969 " fill-opacity="1" fill-rule="nonzero"/><path fill="#1a1a1a" d="M 126.3125 448.4375 C 126.3125 448.4375 151.386719 445.304688 162.355469 436.417969 L 164.445312 436.941406 C 164.445312 436.941406 159.746094 442.167969 148.777344 445.824219 C 137.804688 449.484375 127.359375 449.484375 127.359375 450.527344 C 127.359375 451.574219 130.492188 460.980469 132.582031 471.953125 C 134.667969 482.910156 138.320312 486.75 142.75 490.316406 C 134.597656 486.078125 132.203125 476.3125 131.015625 471.953125 C 129.449219 466.207031 126.835938 453.140625 117.957031 437.988281 C 111.082031 426.261719 103.90625 403.898438 102.457031 382.761719 C 102.707031 384.355469 109.402344 426.398438 126.3125 448.4375 Z M 126.3125 448.4375 " fill-opacity="1" fill-rule="nonzero"/><path fill="#1a1a1a" d="M 495.09375 285.300781 C 495.160156 285.410156 495.261719 285.511719 495.339844 285.617188 C 495.433594 285.742188 495.527344 285.867188 495.621094 285.992188 C 495.808594 286.238281 495.996094 286.488281 496.183594 286.738281 C 496.324219 286.925781 496.46875 287.117188 496.554688 287.335938 C 496.671875 287.640625 496.667969 287.984375 496.570312 288.296875 C 496.351562 289.023438 495.722656 289.554688 495.09375 289.929688 C 492.523438 291.472656 475.039062 291.472656 475.039062 291.472656 L 475.039062 281.1875 Z M 495.09375 285.300781 " fill-opacity="1" fill-rule="nonzero"/><path fill="#d17754" d="M 482.753906 124.292969 C 482.753906 124.292969 477.097656 124.808594 474.523438 125.324219 C 471.953125 125.835938 471.441406 126.867188 470.410156 125.835938 C 469.382812 124.808594 466.296875 122.75 462.183594 122.234375 C 458.070312 121.722656 449.328125 123.777344 449.328125 123.777344 L 429.789062 144.871094 L 432.359375 151.554688 L 453.441406 151.042969 C 453.441406 151.042969 461.15625 145.898438 463.210938 145.898438 C 465.269531 145.898438 475.703125 145.921875 475.703125 145.921875 Z M 482.753906 124.292969 " fill-opacity="1" fill-rule="nonzero"/><path fill="#f1e6dc" d="M 494.066406 120.691406 C 494.066406 120.691406 484.296875 118.636719 481.722656 119.664062 C 479.152344 120.691406 476.066406 128.410156 474.011719 135.609375 C 471.953125 142.8125 472.46875 145.898438 472.46875 145.898438 C 472.46875 145.898438 480.523438 145.804688 489.609375 148.679688 C 498.695312 151.558594 494.066406 120.691406 494.066406 120.691406 Z M 494.066406 120.691406 " fill-opacity="1" fill-rule="nonzero"/><path fill="#4d4d4d" d="M 433.902344 144.871094 C 433.902344 144.871094 432.875 166.988281 430.300781 180.878906 C 427.730469 194.765625 428.246094 205.054688 424.644531 215.34375 C 421.046875 225.628906 417.074219 239.878906 420.675781 252.738281 C 424.273438 265.597656 436.988281 282.214844 445.730469 289.417969 C 454.46875 296.617188 471.953125 296.617188 477.097656 294.046875 C 482.238281 291.472656 496.121094 283.757812 496.636719 287.871094 C 496.636719 287.871094 496.636719 271.925781 494.578125 261.636719 C 494.578125 261.636719 496.121094 262.152344 496.121094 261.125 C 496.121094 260.09375 489.953125 244.664062 489.953125 244.664062 C 489.953125 244.664062 485.839844 224.601562 486.351562 223.058594 C 486.867188 221.515625 494.578125 213.800781 499.207031 213.285156 C 503.835938 212.769531 506.921875 206.597656 510.007812 205.054688 C 513.089844 203.511719 527.488281 193.222656 534.175781 190.136719 C 540.859375 187.050781 546.515625 179.335938 546.515625 179.335938 C 546.515625 179.335938 570.171875 165.445312 574.285156 152.585938 C 578.398438 139.726562 574.917969 134.476562 571.714844 130.980469 C 566.058594 124.808594 502.292969 109.890625 502.292969 109.890625 C 502.292969 109.890625 491.75 116.835938 485.582031 128.664062 C 479.410156 140.496094 481.46875 146.667969 481.46875 146.667969 C 481.46875 146.667969 505.636719 151.300781 504.609375 152.84375 C 503.578125 154.386719 497.410156 155.414062 494.324219 157.988281 C 491.238281 160.558594 490.210938 161.074219 489.695312 160.558594 C 489.179688 160.042969 483.523438 151.300781 480.953125 151.300781 C 478.382812 151.300781 478.898438 151.8125 475.8125 151.300781 C 472.726562 150.785156 459.871094 148.726562 454.214844 149.757812 C 454.214844 149.757812 450.355469 144.355469 445.214844 144.355469 C 440.074219 144.355469 433.902344 144.871094 433.902344 144.871094 Z M 433.902344 144.871094 " fill-opacity="1" fill-rule="nonzero"/><path fill="#333333" d="M 425.65625 210.78125 C 426.464844 208.324219 427.863281 206.03125 428.910156 203.664062 C 430.125 200.910156 431.238281 198.117188 432.359375 195.324219 C 434.382812 190.296875 436.574219 185.359375 438.953125 180.488281 C 443.949219 170.253906 449.007812 160.203125 453.066406 149.546875 C 453.628906 148.0625 455.890625 148.617188 455.484375 150.210938 C 452.6875 161.113281 446.90625 171.144531 441.90625 181.136719 C 439.308594 186.324219 436.914062 191.578125 434.714844 196.941406 C 432.703125 201.847656 431.003906 207.78125 427.683594 211.960938 C 426.921875 212.917969 425.296875 211.882812 425.65625 210.78125 Z M 425.65625 210.78125 " fill-opacity="1" fill-rule="nonzero"/><path fill="#333333" d="M 502.996094 151.972656 C 504.382812 150.847656 505.871094 150.292969 507.578125 149.824219 C 509.851562 149.203125 511.625 148.433594 513.59375 147.121094 C 517.210938 144.710938 520.355469 144.5625 524.585938 144.902344 C 526.789062 145.078125 528.019531 143.296875 529.695312 142.003906 C 531.574219 138.621094 534.652344 135.519531 538.21875 134.148438 C 543.324219 132.179688 549.589844 132.320312 554.976562 131.773438 C 555.8125 131.6875 556.015625 133.125 555.179688 133.25 C 550.488281 133.9375 545.585938 134.265625 540.972656 135.355469 C 538.339844 135.976562 536.472656 137.25 534.871094 138.867188 C 538.566406 137.101562 542.5 136.117188 546.578125 135.808594 C 548.175781 135.6875 548.140625 138.128906 546.578125 138.28125 C 542.398438 138.691406 538.367188 139.949219 534.71875 142.039062 C 532.910156 143.074219 531.207031 144.292969 529.667969 145.695312 C 528.679688 146.601562 527.886719 147.734375 526.511719 147.992188 C 524.636719 148.34375 522.609375 147.496094 520.683594 147.601562 C 518.214844 147.734375 516.414062 148.84375 514.410156 150.171875 C 511.398438 152.167969 507.671875 152.242188 504.742188 154.234375 C 503.40625 155.140625 501.71875 153.007812 502.996094 151.972656 Z M 502.996094 151.972656 " fill-opacity="1" fill-rule="nonzero"/><path fill="#333333" d="M 484.507812 213.316406 C 484.714844 209.433594 485.257812 205.597656 486.09375 201.800781 C 486.421875 200.308594 488.621094 200.957031 488.359375 202.425781 C 487.695312 206.191406 487.261719 209.988281 487.128906 213.808594 C 487 217.414062 487.511719 221.023438 487.371094 224.601562 C 487.320312 225.902344 485.375 226.261719 485.039062 224.917969 C 484.121094 221.257812 484.3125 217.0625 484.507812 213.316406 Z M 484.507812 213.316406 " fill-opacity="1" fill-rule="nonzero"/><path fill="#333333" d="M 465.859375 240.269531 C 466.695312 238.957031 468.460938 238.800781 469.855469 238.761719 C 475.730469 238.605469 481.457031 240.472656 486.898438 242.488281 C 487.871094 242.84375 487.496094 244.339844 486.46875 244.0625 C 481.710938 242.777344 477.167969 240.964844 472.1875 240.746094 C 471.382812 240.710938 470.179688 240.570312 469.390625 240.746094 C 467.328125 241.207031 467.738281 242.648438 468.359375 244.203125 C 469.210938 246.335938 470.21875 248.421875 471.367188 250.410156 C 472.742188 252.800781 474.605469 252.832031 477.074219 253.34375 C 479.191406 253.78125 481.296875 254.289062 483.371094 254.910156 C 486.746094 255.921875 491.519531 257.1875 493.914062 259.949219 C 494.773438 260.941406 493.328125 262.398438 492.464844 261.398438 C 490.535156 259.171875 486.867188 258.183594 484.148438 257.300781 C 481.359375 256.390625 478.5 255.703125 475.621094 255.132812 C 473.535156 254.71875 471.6875 254.578125 470.382812 252.746094 C 468.878906 250.632812 467.777344 248.082031 466.78125 245.699219 C 466.132812 244.148438 464.804688 241.925781 465.859375 240.269531 Z M 465.859375 240.269531 " fill-opacity="1" fill-rule="nonzero"/><path fill="#333333" d="M 481.558594 153.492188 C 481.816406 152.976562 482.542969 153.429688 482.320312 153.9375 C 480.222656 158.6875 480.871094 163.890625 482.421875 168.699219 C 483.917969 173.328125 485.9375 177.828125 488.070312 182.195312 C 490.160156 186.476562 492.476562 190.644531 495.007812 194.675781 C 496.253906 196.660156 497.546875 198.613281 498.894531 200.527344 C 500.382812 202.644531 501.933594 204.734375 504.027344 206.292969 C 504.546875 206.679688 504.039062 207.5625 503.515625 207.171875 C 500.476562 204.910156 498.378906 201.640625 496.296875 198.53125 C 494.035156 195.15625 491.929688 191.683594 489.988281 188.121094 C 488.003906 184.488281 486.191406 180.765625 484.550781 176.964844 C 482.992188 173.351562 481.429688 169.652344 480.566406 165.800781 C 479.648438 161.695312 479.652344 157.324219 481.558594 153.492188 Z M 481.558594 153.492188 " fill-opacity="0.5" fill-rule="nonzero"/><path fill="#f1e6dc" d="M 388.121094 158.25 C 386.417969 152.929688 385.597656 147.214844 393.792969 144.917969 C 401.039062 142.886719 429.414062 142.605469 429.414062 142.605469 C 429.714844 142.777344 431.707031 143.003906 433.574219 143.660156 C 434.933594 144.597656 436.136719 146.105469 436.171875 147.757812 C 436.203125 149.542969 434.667969 150.324219 433.953125 151.6875 C 433 153.5 433.730469 156.378906 433.597656 158.359375 C 433.226562 163.90625 432.402344 169.53125 431.210938 175.011719 C 422.238281 180.589844 407.015625 185.84375 395.066406 182.273438 C 378.117188 177.210938 390.007812 164.136719 388.121094 158.25 Z M 388.121094 158.25 " fill-opacity="1" fill-rule="nonzero"/><path fill="#1a1a1a" d="M 400.980469 146.578125 C 400.980469 146.578125 392.378906 146.015625 390.320312 151.066406 C 388.265625 156.117188 399.09375 159.484375 399.09375 159.484375 L 408.324219 156.835938 Z M 400.980469 146.578125 " fill-opacity="1" fill-rule="nonzero"/><path fill="#1a1a1a" d="M 425.644531 144.347656 C 425.644531 144.347656 434.226562 143.835938 433.90625 145.992188 C 433.585938 148.144531 429.132812 152.871094 429.132812 152.871094 L 417.414062 153.757812 Z M 425.644531 144.347656 " fill-opacity="1" fill-rule="nonzero"/><path fill="#464c7b" d="M 400.535156 96.785156 C 399.527344 94.914062 398.8125 92.785156 398.875 90.734375 C 398.917969 89.375 399.476562 87.84375 400.765625 87.40625 C 398.859375 81.609375 400.394531 73.242188 405.523438 69.507812 C 408.296875 67.492188 411.964844 66.75 415.300781 67.535156 C 417.316406 68.011719 419.382812 69.230469 419.917969 71.234375 C 420.835938 70.664062 421.40625 69.714844 422.375 69.332031 C 423.378906 68.933594 424.871094 69.113281 425.863281 69.453125 C 426.402344 69.640625 429.996094 72.203125 428.988281 73.042969 C 432.925781 69.75 438.816406 69.222656 443.496094 71.335938 C 450.988281 74.722656 453.304688 81.847656 451.621094 89.382812 C 453.445312 89.972656 455.1875 89.910156 456.382812 91.832031 C 457.378906 93.433594 457.332031 95.621094 456.265625 97.179688 C 460.398438 98.667969 464.34375 102 464.640625 106.382812 C 464.792969 108.65625 463.925781 110.921875 462.542969 112.730469 C 461.160156 114.535156 459.289062 115.921875 457.300781 117.03125 C 457.953125 116.667969 458.332031 119.542969 458.246094 119.808594 C 458.066406 120.382812 457.675781 120.867188 457.261719 121.308594 C 457.203125 121.375 457.132812 121.449219 457.132812 121.542969 C 457.128906 121.65625 457.222656 121.746094 457.3125 121.816406 C 460.683594 124.71875 460.167969 129.421875 456.925781 132.199219 C 455.507812 133.410156 453.746094 134.234375 451.914062 134.566406 C 451.304688 134.675781 449.53125 134.417969 449.097656 134.765625 C 448.6875 135.089844 449.097656 135.84375 449.109375 136.328125 C 449.125 136.992188 448.976562 137.664062 448.660156 138.25 C 448.027344 139.417969 446.753906 140.210938 445.429688 140.265625 C 445.039062 140.28125 444.644531 140.238281 444.261719 140.3125 C 443.621094 140.433594 443.089844 140.867188 442.574219 141.269531 C 441.160156 142.367188 439.558594 143.097656 438.101562 144.105469 C 436.71875 145.0625 435.351562 145.453125 433.804688 146.125 C 431.515625 147.117188 429.113281 147.769531 426.613281 147.964844 C 425.589844 148.042969 424.640625 146.769531 424.085938 146.085938 C 419.917969 140.953125 417.246094 134.292969 414.539062 128.332031 C 411.191406 120.957031 408.089844 113.472656 405.09375 105.953125 C 404.09375 103.441406 403.171875 100.796875 401.640625 98.589844 C 401.25 98.027344 400.875 97.421875 400.535156 96.785156 Z M 400.535156 96.785156 " fill-opacity="1" fill-rule="nonzero"/><path fill="#e9946b" d="M 430.472656 151.195312 C 427.554688 155.664062 421.339844 157.832031 416.511719 159.074219 C 410.363281 160.660156 404.117188 161.074219 398.226562 159.230469 C 400.535156 155.871094 401.300781 151.96875 401.949219 148.015625 C 402.023438 147.613281 402.101562 147.210938 402.15625 146.804688 C 406.484375 144.023438 412.386719 140.292969 418.003906 136.757812 C 426.957031 131.136719 438.03125 127.617188 438.03125 127.617188 C 438.03125 127.617188 429.273438 139.699219 430.472656 151.195312 Z M 430.472656 151.195312 " fill-opacity="1" fill-rule="nonzero"/><path fill="#bc5c3f" d="M 401.945312 148.039062 C 401.988281 147.800781 402.039062 147.566406 402.078125 147.328125 L 423.242188 146.8125 C 420.035156 152.628906 413.90625 157.578125 407.183594 158.074219 C 404.546875 158.269531 401.71875 158.34375 399.0625 157.875 C 400.730469 154.847656 401.382812 151.460938 401.945312 148.039062 Z M 401.945312 148.039062 " fill-opacity="1" fill-rule="nonzero"/><path fill="#e9946b" d="M 397.265625 99.296875 C 395.667969 102.726562 383 126.183594 385.597656 137.148438 C 386.972656 142.945312 393.496094 147.5 398.25 149.335938 C 412.886719 154.992188 424.867188 148.519531 432.359375 139.574219 C 432.359375 139.574219 447.097656 139.117188 446.78125 125.597656 C 446.542969 115.660156 434.859375 124.953125 434.859375 124.953125 C 434.859375 124.953125 435.0625 119.917969 436.625 112.441406 C 437.304688 109.175781 435.707031 105.859375 432.714844 104.386719 C 423.683594 99.949219 411.609375 91.578125 410.546875 83.945312 C 410.546875 83.945312 399.878906 93.667969 397.265625 99.296875 Z M 397.265625 99.296875 " fill-opacity="1" fill-rule="nonzero"/><path fill="#d87856" d="M 399.585938 119.828125 C 399.992188 119.285156 400.925781 119.175781 401.609375 119.609375 C 402.277344 120.039062 402.949219 120.464844 403.621094 120.894531 C 404.300781 121.328125 404.542969 122.148438 404.132812 122.703125 C 403.726562 123.246094 402.792969 123.355469 402.113281 122.921875 C 401.441406 122.492188 400.769531 122.066406 400.097656 121.636719 C 399.417969 121.203125 399.175781 120.382812 399.585938 119.828125 Z M 399.585938 119.828125 " fill-opacity="1" fill-rule="nonzero"/><path fill="#464c7b" d="M 420.21875 99.542969 C 421.695312 100.386719 423.285156 100.992188 424.714844 101.917969 C 426.167969 102.855469 427.496094 103.972656 428.90625 104.964844 C 430.183594 105.863281 428.898438 107.914062 427.613281 107.011719 C 426.199219 106.019531 424.875 104.894531 423.421875 103.964844 C 421.988281 103.042969 420.398438 102.433594 418.921875 101.585938 C 417.566406 100.8125 418.859375 98.765625 420.21875 99.542969 Z M 420.21875 99.542969 " fill-opacity="1" fill-rule="nonzero"/><path fill="#464c7b" d="M 394.9375 99.507812 C 396.039062 98.476562 397.28125 98.15625 398.71875 97.859375 C 400.234375 97.550781 400.894531 99.875 399.363281 100.191406 C 398.414062 100.386719 397.421875 100.488281 396.683594 101.175781 C 395.550781 102.234375 393.796875 100.570312 394.9375 99.507812 Z M 394.9375 99.507812 " fill-opacity="1" fill-rule="nonzero"/><path fill="#ffffff" d="M 411.203125 129.90625 C 405.171875 129.707031 393.535156 125.734375 393.535156 125.734375 C 394.070312 149.109375 411.203125 129.90625 411.203125 129.90625 Z M 411.203125 129.90625 " fill-opacity="1" fill-rule="nonzero"/><path fill="#4a3333" d="M 416.863281 109.328125 C 420.363281 109.097656 423.492188 109.964844 426.035156 112.914062 C 426.9375 113.957031 425.578125 115.617188 424.671875 114.570312 C 422.480469 112.027344 419.921875 111.414062 416.925781 111.609375 C 415.648438 111.691406 415.585938 109.410156 416.863281 109.328125 Z M 416.863281 109.328125 " fill-opacity="1" fill-rule="nonzero"/><path fill="#4a3333" d="M 393.46875 104.644531 C 396.292969 103.792969 399.027344 103.914062 401.683594 105.867188 C 402.625 106.558594 401.832031 108.1875 400.886719 107.492188 C 398.597656 105.808594 396.378906 105.785156 393.960938 106.515625 C 392.929688 106.828125 392.433594 104.957031 393.46875 104.644531 Z M 393.46875 104.644531 " fill-opacity="1" fill-rule="nonzero"/><path fill="#e5d6ca" d="M 387.148438 164.453125 C 387.515625 163.273438 388.378906 163.730469 388.136719 164.929688 C 387.722656 166.972656 387.410156 168.917969 387.332031 171.023438 C 387.242188 173.386719 388.449219 175.589844 390.113281 177.191406 C 393.574219 180.519531 399.066406 181.671875 403.695312 181.847656 C 412.761719 182.195312 422.105469 179.097656 429.867188 174.570312 C 430.734375 174.0625 431.667969 174.703125 430.816406 175.21875 C 421.699219 180.753906 410.59375 185.210938 399.816406 183.515625 C 395.289062 182.800781 390.273438 181.027344 387.417969 177.230469 C 386.238281 175.664062 385.414062 173.757812 385.304688 171.785156 C 385.15625 169.195312 386.398438 166.863281 387.148438 164.453125 Z M 387.148438 164.453125 " fill-opacity="1" fill-rule="nonzero"/><path fill="#b0c1d3" d="M 337.65625 257.535156 C 337.65625 257.535156 409.136719 266.378906 408.398438 267.117188 C 407.664062 267.855469 366.394531 293.65625 361.238281 293.65625 C 356.078125 293.65625 336.917969 286.285156 336.917969 286.285156 Z M 337.65625 257.535156 " fill-opacity="1" fill-rule="nonzero"/><path fill="#b0c1d3" d="M 408.398438 267.117188 C 408.398438 267.117188 364.921875 297.34375 360.5 296.605469 C 356.078125 295.867188 265.4375 284.808594 261.015625 280.386719 C 256.59375 275.964844 238.167969 197.824219 242.589844 194.875 C 247.011719 191.925781 345.542969 202.75 349.445312 205.929688 C 353.347656 209.113281 361.238281 289.972656 364.183594 290.707031 C 367.132812 291.445312 406.925781 264.167969 408.398438 267.117188 Z M 408.398438 267.117188 " fill-opacity="1" fill-rule="nonzero"/><path fill="#333333" d="M 357.550781 268.59375 C 357.550781 268.59375 386.292969 272.277344 385.554688 273.753906 C 384.820312 275.226562 361.972656 287.757812 361.972656 287.757812 Z M 357.550781 268.59375 " fill-opacity="1" fill-rule="nonzero"/><path fill="#333333" d="M 357.550781 261.21875 C 359.5625 261.402344 365.660156 262.078125 365.660156 262.695312 C 365.660156 264.167969 361.238281 267.855469 360.5 267.855469 C 360.316406 267.855469 359.597656 267.765625 358.617188 267.628906 C 358.574219 265.273438 357.757812 263.578125 357.550781 261.21875 Z M 357.550781 261.21875 " fill-opacity="1" fill-rule="nonzero"/><path fill="#93aabc" d="M 249.222656 195.609375 C 244.851562 195.390625 242.640625 195.921875 242.070312 196.015625 C 242.179688 195.433594 242.351562 195.035156 242.589844 194.875 C 247.011719 191.925781 345.542969 202.75 349.445312 205.929688 C 353.347656 209.113281 361.238281 289.972656 364.183594 290.707031 C 367.132812 291.445312 406.925781 264.167969 408.398438 267.117188 C 408.398438 267.117188 364.921875 297.34375 360.5 296.605469 C 357.550781 294.394531 353.128906 229.519531 347.234375 207.40625 C 346.386719 204.21875 263.960938 196.347656 249.222656 195.609375 Z M 249.222656 195.609375 " fill-opacity="1" fill-rule="nonzero"/><g clip-path="url(#8c5b7fa532)"><path stroke-linecap="butt" transform="matrix(0.477487, -0.17245, 0.17245, 0.477487, 160.307059, 419.068779)" fill="none" stroke-linejoin="miter" d="M 42.621123 114.809916 C 44.779961 114.812423 46.640681 114.666357 48.20067 114.378955 C 49.687685 114.089741 50.924246 113.202861 51.903116 111.7157 C 52.888816 110.345537 53.576423 108.23779 53.961315 105.382609 C 54.24891 102.525011 54.248881 98.606375 53.959218 93.609615 L 40.852404 93.612659 C 37.712751 93.607697 34.951636 93.551288 32.574287 93.428959 C 30.225477 93.43147 28.067651 93.290254 26.096184 92.995461 C 24.036863 92.808013 22.159278 92.457137 20.482527 91.957911 C 18.732396 91.571258 16.868089 90.979753 14.904082 90.188622 C 10.079692 88.438061 6.678432 85.442598 4.712767 81.190371 C 2.653824 76.969902 1.618393 70.9348 1.620948 63.090292 C 1.618818 61.21611 1.571678 58.900267 1.47229 56.140151 C 1.380139 53.382648 1.573655 50.491072 2.052837 47.465423 C 2.459649 44.413637 3.303499 41.30699 4.569912 38.140254 C 5.843155 35.090517 7.858383 32.251489 10.620822 29.608697 C 13.765633 26.564067 17.887819 24.052405 22.999239 22.086174 C 28.108242 20.217241 35.097418 19.280959 43.949679 19.279336 C 48.654534 19.276929 52.829863 19.721383 56.475664 20.612699 C 60.007278 21.593669 63.1517 22.876565 65.908928 24.461388 C 68.664344 26.119184 71.034984 27.98161 72.999136 30.040824 C 74.843874 32.204165 76.422042 34.516658 77.71394 36.987547 C 79.777519 40.923361 81.151165 45.002678 81.817789 49.227508 C 82.418677 53.453139 82.721658 57.325753 82.714266 60.857208 C 82.624025 64.980486 82.229231 69.018314 81.530487 72.946367 L 52.478949 72.950121 L 52.479517 59.991867 C 52.484715 56.058757 52.039572 53.010151 51.151324 50.84866 C 50.16578 48.684754 47.960551 47.610163 44.526393 47.605188 C 43.732936 47.604953 42.896859 47.654771 42.010925 47.752029 C 41.122575 47.946585 40.136927 48.138725 39.053982 48.328448 C 36.605236 48.92479 34.890423 49.957998 33.909544 51.428072 C 32.82614 52.910202 32.193025 54.685854 32.002964 56.752411 C 31.715604 58.816553 31.663241 61.022831 31.853109 63.37386 C 32.047798 65.824799 32.147605 68.176025 32.142682 70.432161 C 32.142553 73.377218 32.981745 75.651885 34.660861 77.231836 C 36.223176 78.908678 38.429218 79.754499 41.284215 79.754825 C 43.542964 79.752511 45.701001 79.689282 47.762948 79.574987 C 49.734428 79.575275 51.698671 79.572948 53.670151 79.573236 C 58.087738 79.573429 62.120548 79.778252 65.761346 80.185091 C 69.39048 80.669526 72.530291 81.648066 75.199875 83.135789 C 77.86041 84.693871 79.923056 87.001359 81.383189 90.048402 C 82.753261 93.095642 83.438181 97.269813 83.437949 102.570917 C 83.435154 106.701235 82.705874 110.192856 81.240256 113.050402 C 79.660253 115.907542 77.644644 118.271943 75.19343 120.143605 C 72.628028 122.104922 69.769144 123.63301 66.629243 124.716011 C 63.484718 125.78916 60.340207 126.567805 57.195708 127.051943 C 53.953308 127.557989 50.859678 127.855978 47.912204 127.953146 C 44.865015 128.145195 42.311958 128.237556 40.240567 128.242089 C 35.226732 128.239256 30.912694 127.793791 27.281366 126.907702 C 23.54289 126.02382 20.350818 124.895512 17.712388 123.525392 C 15.049633 122.154667 12.877398 120.535695 11.195681 118.668475 C 9.441187 116.889503 8.072469 115.061698 7.094148 113.19491 C 4.623911 108.776814 3.526317 103.77459 3.818454 98.18623 L 33.76587 100.526701 C 33.76356 102.7756 33.861975 104.790908 34.053879 106.570013 C 34.148485 108.346701 34.498812 109.823065 35.097623 110.99649 C 35.669692 112.266609 36.5592 113.201428 37.756294 113.805569 C 38.839805 114.475039 40.362375 114.812229 42.333855 114.812516 Z M 42.621123 114.809916 " stroke="#ffbcd9" stroke-width="38.703526" stroke-opacity="1" stroke-miterlimit="4"/></g><g clip-path="url(#ea85a98b40)"><path stroke-linecap="butt" transform="matrix(0.493818, -0.117798, 0.117798, 0.493818, 205.767269, 403.080998)" fill="none" stroke-linejoin="miter" d="M 2.948647 89.759594 C 2.949185 85.148019 3.140062 80.534388 3.524847 75.903729 C 3.937028 71.39035 5.218771 67.210966 7.375777 63.374847 C 9.54308 59.628198 12.986505 56.534014 17.707836 54.084812 C 22.315115 51.616314 28.889481 50.186596 37.436633 49.804929 L 40.529074 49.806959 C 48.692181 49.808298 54.990963 51.026073 59.429335 53.477038 C 63.84841 56.042054 67.134102 59.246392 69.29568 63.084351 C 71.353848 67.024206 72.590647 71.290208 73.000722 75.904809 C 73.384016 80.631675 73.578486 85.155293 73.576646 89.473876 C 73.572809 94.298241 73.274266 98.965293 72.673533 103.473245 C 72.096281 108.081722 70.621729 112.207202 68.24809 115.857169 C 65.898689 119.505008 62.311346 122.406655 57.484275 124.569593 C 52.682472 126.825573 46.054414 127.949801 37.581563 127.953677 C 29.82907 127.955365 23.684232 126.821775 19.150963 124.569661 C 14.53928 122.314662 11.060295 119.356896 8.710437 115.711333 C 6.2422 112.164095 4.66956 108.07902 3.996431 103.472862 C 3.300093 98.964001 2.952022 94.387922 2.948647 89.759594 Z M 37.902763 74.279835 C 35.525526 74.661991 33.754182 75.15704 32.575549 75.753925 C 31.30099 76.454493 30.417678 77.438238 29.908859 78.709073 C 29.336593 79.980595 28.997645 81.600454 28.906983 83.572221 C 28.810622 85.534719 28.761769 88.093912 28.763996 91.234831 C 28.765194 94.280581 28.812539 96.933914 28.906031 99.19483 C 29.001309 101.448261 29.338772 103.316488 29.909149 104.80521 C 30.41498 106.365548 31.3006 107.494402 32.575279 108.186076 C 33.754032 108.981431 35.525707 109.380325 37.90706 109.378844 C 40.351858 109.376678 42.210129 108.981469 43.481874 108.193217 C 44.780671 107.490521 45.712874 106.368143 46.291323 104.805416 C 46.891126 103.318975 47.234815 101.447117 47.337359 99.193413 C 47.33725 96.938953 47.338383 94.281363 47.337185 91.235614 C 47.331589 88.473585 47.379685 86.017046 47.475774 83.856726 C 47.476694 81.697434 47.33204 79.883111 47.047513 78.423026 C 46.738404 76.933347 46.132592 75.792136 45.245045 75.002964 C 44.383865 74.235902 43.060225 73.848961 41.287308 73.853196 C 40.402636 73.847829 39.267679 73.996336 37.902763 74.279835 Z M 37.902763 74.279835 " stroke="#ffbcd9" stroke-width="38.703526" stroke-opacity="1" stroke-miterlimit="4"/></g><g clip-path="url(#7736d1f53e)"><path stroke-linecap="butt" transform="matrix(0.501595, -0.0783322, 0.0783322, 0.501595, 247.136502, 393.763015)" fill="none" stroke-linejoin="miter" d="M 34.342757 21.800356 L 30.523498 124.997898 L 3.382588 125.003679 L 2.947866 23.563772 Z M 34.342757 21.800356 " stroke="#ffbcd9" stroke-width="38.703526" stroke-opacity="1" stroke-miterlimit="4"/></g><g clip-path="url(#f1585a0be0)"><path stroke-linecap="butt" transform="matrix(0.506299, -0.037335, 0.037335, 0.506299, 269.440094, 389.990646)" fill="none" stroke-linejoin="miter" d="M 4.570242 53.043241 L 30.955573 51.277863 L 30.238703 91.236523 C 30.236523 94.091021 30.287105 96.648514 30.383342 98.900762 C 30.378691 101.161 30.623169 103.076991 31.100297 104.662949 C 31.602709 106.219911 32.395446 107.397086 33.479076 108.186801 C 34.4627 109.077156 35.934148 109.525135 37.90166 109.52363 C 38.094631 109.522429 38.337604 109.470909 38.62234 109.376176 C 38.815311 109.374975 39.069671 109.378302 39.378311 109.377915 C 41.83032 109.188394 43.687682 108.692704 44.957506 107.899083 C 46.258024 107.107725 47.189824 105.980566 47.768254 104.518738 C 48.364612 103.127669 48.715277 101.301856 48.812011 99.048408 C 48.809306 96.887926 48.808726 94.280113 48.809706 91.232644 L 48.662912 53.046537 L 74.909553 51.278648 L 75.048107 89.471862 C 75.055105 94.294438 74.749432 98.962797 74.154675 103.470963 C 73.575583 108.080583 72.098546 112.207362 69.722997 115.858974 C 67.371034 119.504609 63.785118 122.411166 58.95814 124.570407 C 54.162739 126.824559 47.52905 127.955597 39.058203 127.948172 C 31.303827 127.955004 25.161052 126.823084 20.628747 124.567759 C 16.019141 122.314449 12.541551 119.357655 10.187173 115.712158 C 7.718009 112.158495 6.143616 108.084451 5.4728 103.475245 C 4.771606 98.964098 4.429622 94.39457 4.424391 89.757292 Z M 4.570242 53.043241 " stroke="#ffbcd9" stroke-width="38.703526" stroke-opacity="1" stroke-miterlimit="4"/></g><g clip-path="url(#eaf6f14a70)"><path stroke-linecap="butt" transform="matrix(0.507363, 0.0177687, -0.0177687, 0.507363, 314.589331, 386.96908)" fill="none" stroke-linejoin="miter" d="M 39.953514 74.136185 L 39.052743 74.136935 C 38.67541 74.134752 38.284582 74.186935 37.90306 74.284987 C 35.52976 74.668369 33.752874 75.15405 32.572942 75.757409 C 31.303965 76.456276 30.414327 77.434425 29.912255 78.706965 C 29.333287 79.982198 28.997398 81.603078 28.904587 83.569604 C 28.811777 85.53613 28.762772 88.093954 28.757303 91.235387 C 28.763982 94.284005 28.810754 96.938564 28.90504 99.191104 C 28.999326 101.443644 29.334445 103.318192 29.910128 104.807059 C 30.419027 106.367556 31.305289 107.491386 32.576872 108.185968 C 33.75199 108.984018 35.528818 109.376039 37.900204 109.377679 C 40.256211 109.379858 42.068704 109.031515 43.33768 108.332648 C 44.610966 107.756816 45.546742 106.777052 46.14474 105.385665 C 46.746777 104.109624 47.09643 102.442068 47.193429 100.375306 C 47.28624 98.40878 47.336173 96.097295 47.335269 93.433431 L 73.579338 90.9514 C 73.476389 95.266513 73.037398 99.439412 72.246984 103.470636 C 71.44915 107.50982 69.834622 111.09256 67.38087 114.235046 C 64.911738 117.37807 61.467541 119.939312 57.055428 121.903125 C 52.54335 123.870439 46.543449 124.904371 39.055457 124.997232 L 39.233339 125.899499 C 40.888777 125.903115 42.20922 126.234128 43.195207 126.907917 C 44.085268 127.700551 44.769054 128.538905 45.246834 129.430669 C 45.750915 130.413901 46.099975 131.587341 46.294285 132.958678 C 46.288456 135.4303 45.89871 137.491916 45.101978 139.144333 C 44.237115 140.829933 43.067119 142.156662 41.577146 143.140436 C 40.110243 144.123403 38.394187 144.807131 36.428978 145.19162 C 34.460389 145.699413 32.351918 145.950335 30.096146 145.952345 L 27.863174 145.945857 C 27.070328 145.950526 26.42966 145.903671 25.956549 145.804753 L 25.951411 135.76528 C 26.527719 135.952973 27.165814 136.146201 27.857737 136.337544 C 28.461573 136.431884 29.096705 136.540525 29.770825 136.6632 C 30.467206 136.761997 31.20784 136.805351 32.000955 136.808372 C 33.27137 136.810074 34.401903 136.554906 35.385135 136.050825 C 36.369175 135.569813 36.856526 134.536462 36.862835 132.957921 C 36.86008 131.780052 36.509375 130.999325 35.818409 130.61547 C 35.145246 130.300284 34.315986 130.144547 33.330629 130.14826 C 32.83026 130.150385 32.337312 130.144552 31.860013 130.145869 C 31.25522 130.244041 30.764158 130.292035 30.379135 130.290121 L 30.814981 124.708393 C 24.623762 124.016723 19.702746 122.441365 16.052472 119.997697 C 12.335145 117.617971 9.537109 114.66711 7.666053 111.144848 C 5.697994 107.710672 4.414615 103.821368 3.815917 99.476934 C 3.236907 95.254996 2.950374 91.030514 2.948899 86.811448 C 2.949069 82.199668 3.146597 77.727261 3.525567 73.379384 C 3.932184 69.161423 5.222278 65.328275 7.381009 61.895856 C 9.535551 58.563672 12.980975 55.817607 17.709591 53.657931 C 22.314095 51.471805 28.890332 50.186715 37.438305 49.802661 C 44.128993 49.807015 49.734719 50.488393 54.248061 51.854754 C 58.781091 53.343612 62.477383 55.562394 65.329517 58.519058 C 68.065766 61.464383 70.075087 65.197379 71.341831 69.710895 C 72.643374 74.338679 73.382972 79.848445 73.575737 86.231965 L 47.332265 87.851674 C 47.335074 86.173167 47.238186 84.505851 47.049292 82.849456 C 46.832062 81.263346 46.480188 79.789739 46.001091 78.420676 C 45.501348 77.121628 44.764691 76.092647 43.806231 75.325506 C 42.823894 74.536103 41.539475 74.134536 39.953514 74.136185 Z M 39.953514 74.136185 " stroke="#ffbcd9" stroke-width="38.703526" stroke-opacity="1" stroke-miterlimit="4"/></g><g clip-path="url(#9b10b2b0e5)"><path stroke-linecap="butt" transform="matrix(0.502595, 0.0716312, -0.0716312, 0.502595, 358.214185, 388.753477)" fill="none" stroke-linejoin="miter" d="M 37.582346 127.95258 C 29.82599 127.95439 23.688088 126.823963 19.146876 124.572173 C 14.542552 122.313834 11.059254 119.359444 8.713303 115.71445 C 6.240009 112.157554 4.664611 108.084081 3.992554 103.477708 C 3.301971 98.95947 2.954171 94.392377 2.954602 89.760109 C 2.950672 85.15178 3.146966 80.530457 3.528251 75.898315 C 3.934523 71.386965 5.220999 67.216496 7.377891 63.372758 C 9.541279 59.629132 12.986298 56.534466 17.712949 54.08876 C 22.318825 51.613633 28.892825 50.187044 37.433866 49.801374 L 40.535102 49.80239 C 48.688632 49.806152 54.987549 51.030213 59.431853 53.474574 C 63.846738 56.039711 67.132996 59.247575 69.289544 63.090551 C 71.357922 67.023815 72.588311 71.294131 72.995946 75.899329 C 73.382865 80.631834 73.576163 85.150997 73.578011 89.472054 C 73.574252 94.2991 73.275656 98.966091 72.674605 103.474112 C 72.102903 108.078989 70.623838 112.206957 68.245026 115.856931 C 65.896685 119.502562 62.308091 122.407842 57.486863 124.571686 C 52.686281 126.825854 46.053619 127.949917 37.582346 127.95258 Z M 48.669353 32.274911 C 49.749888 32.276353 50.781605 31.826196 51.759057 30.94076 C 52.649424 30.153229 53.48001 29.16437 54.245366 27.990504 C 54.939994 26.811173 55.588954 25.529542 56.191159 24.137991 C 56.670364 22.865009 57.053763 21.737808 57.341357 20.756389 L 68.251426 33.284608 C 67.07026 34.867484 65.848837 36.440553 64.578452 37.997283 C 63.302585 39.67915 61.926659 41.204289 60.434354 42.567256 C 58.97033 43.965053 57.398665 45.098393 55.722617 45.990129 C 53.972584 46.853549 52.05947 47.281654 50.000682 47.287508 C 47.046349 47.281098 44.584034 46.746008 42.619183 45.665916 C 40.652126 44.679404 38.876661 43.455738 37.292789 41.994917 C 35.635982 40.622212 34.064052 39.245183 32.575914 37.856212 C 31.018098 36.578209 29.206628 35.647245 27.139334 35.048082 C 23.587602 35.049094 20.780861 39.568362 18.720198 48.613503 L 9.288729 36.698399 C 10.271025 30.993534 12.239795 26.756911 15.188507 23.997233 C 18.046895 21.258201 22.367312 19.888545 28.149758 19.888264 C 30.426141 19.991297 32.49016 20.622014 34.336371 21.796737 C 36.119435 23.073725 37.799112 24.388765 39.377574 25.757091 C 40.941851 27.244021 42.460458 28.62865 43.955164 29.900103 C 45.418314 31.168281 46.984994 31.963146 48.669353 32.274911 Z M 47.334442 91.238227 C 47.337524 88.478671 47.382945 86.016196 47.479411 83.857332 C 47.482296 81.69626 47.332725 79.883348 47.047019 78.424041 C 46.733033 76.929904 46.136009 75.794765 45.246159 75.004474 C 44.382418 74.233778 43.060439 73.84705 41.288924 73.850822 C 40.403167 73.852708 39.27253 73.990533 37.906804 74.278445 C 35.529063 74.66396 33.74977 75.158486 32.576544 75.760938 C 31.30753 76.454764 30.413834 77.437073 29.910691 78.705695 C 29.338992 79.984087 29.002222 81.602061 28.901467 83.567232 C 28.809416 85.538935 28.761787 88.094992 28.758581 91.2354 C 28.757582 94.282229 28.808944 96.932987 28.90505 99.18876 C 29.001156 101.444533 29.33787 103.316267 29.915192 104.803961 C 30.417407 106.364537 31.301704 107.497595 32.573529 108.186813 C 33.751738 108.982639 35.525299 109.374956 37.904 109.377912 C 40.352345 109.378715 42.207776 108.982147 43.485529 108.186038 C 44.778481 107.496573 45.713574 106.368465 46.291895 104.809331 C 46.887603 103.317668 47.242954 101.448338 47.332924 99.189361 C 47.338015 96.93471 47.333443 94.285055 47.334442 91.238227 Z M 47.334442 91.238227 " stroke="#ffbcd9" stroke-width="38.703526" stroke-opacity="1" stroke-miterlimit="4"/></g><g clip-path="url(#3f3c1acd93)"><path stroke-linecap="butt" transform="matrix(0.492126, 0.124681, -0.124681, 0.492126, 401.40177, 395.167669)" fill="none" stroke-linejoin="miter" d="M 73.574514 93.898296 C 73.478323 98.312106 73.032561 102.536668 72.244686 106.570093 C 71.354478 110.700881 69.686361 114.330253 67.236654 117.475018 C 64.674966 120.616403 61.088629 123.128384 56.475754 125.003503 C 51.751197 126.970417 45.452224 127.955087 37.576945 127.950053 C 29.830454 127.952078 23.687183 126.825612 19.147132 124.570653 C 14.543633 122.315895 11.065104 119.363372 8.711546 115.713086 C 6.240737 112.163943 4.667758 108.085708 4.000067 103.476491 C 3.300951 98.962549 2.952496 94.391515 2.952812 89.755933 C 2.953229 85.152075 3.140214 80.532699 3.530575 75.901485 C 3.936254 71.393391 5.218196 67.210981 7.38207 63.376632 C 9.536896 59.631889 12.983296 56.536235 17.711921 54.084103 C 22.317327 51.615564 28.892964 50.187738 37.438831 49.800627 L 39.956318 49.805754 C 47.512461 49.804329 53.512526 51.086139 57.956513 53.651186 C 62.270122 56.296889 65.611614 59.585755 67.956724 63.515995 C 70.216008 67.452103 71.690533 71.674344 72.38965 76.188287 C 73.087276 80.821669 73.477894 85.151833 73.57831 89.182457 L 28.759658 93.147535 C 28.76091 96.504782 28.809094 99.358014 28.90421 101.70723 C 29.001515 104.159079 29.33819 106.17722 29.912345 107.754195 C 30.419271 109.316453 31.301814 110.450172 32.58046 111.142225 C 33.749315 111.933531 35.525307 112.332893 37.904658 112.325393 C 40.256064 112.33291 42.06516 111.985697 43.339406 111.281864 C 44.608383 110.682553 45.549564 109.697978 46.148033 108.331916 C 46.746802 107.061029 47.098132 105.44008 47.187105 103.47285 C 47.283538 101.50373 47.332228 99.189518 47.333176 96.530214 Z M 47.048814 83.283126 L 46.905108 83.279846 L 45.7137 72.373936 C 45.401101 70.889445 44.615122 69.604261 43.340845 68.522163 C 42.066568 67.440066 40.542083 66.905546 38.77107 66.901798 C 37.690541 66.89774 36.56198 67.048725 35.379719 67.332379 C 34.205016 67.645867 33.174419 68.089533 32.287928 68.663378 C 31.306363 69.269247 30.509977 70.010763 29.910008 70.900954 C 29.237242 71.785776 28.906588 72.861736 28.905019 74.140072 L 28.762101 85.042724 L 28.758822 85.18643 L 46.905108 83.279846 L 46.901828 83.423552 Z M 47.048814 83.283126 " stroke="#ffbcd9" stroke-width="38.703526" stroke-opacity="1" stroke-miterlimit="4"/></g><g clip-path="url(#a1cf73c74a)"><path stroke-linecap="butt" transform="matrix(0.476272, 0.175779, -0.175779, 0.476272, 443.607002, 406.141998)" fill="none" stroke-linejoin="miter" d="M 43.631136 74.137637 C 43.625957 73.056921 43.193251 71.928951 42.333018 70.753725 C 41.441247 69.581937 40.115089 68.988758 38.335551 68.989398 C 37.950993 68.991899 37.5581 69.038484 37.149654 69.131818 C 36.66825 69.227474 36.173956 69.377097 35.668663 69.563586 C 34.403542 70.046911 33.524615 70.732174 33.046321 71.614047 C 32.441875 72.509672 32.04995 73.581116 31.856882 74.858025 C 31.66502 76.249314 31.612719 77.818742 31.709864 79.570864 C 31.710504 81.350402 31.713123 83.268638 31.713168 85.335456 C 31.711739 86.820495 31.905804 87.946323 32.288144 88.715603 C 32.574412 89.602358 32.971532 90.300569 33.47684 90.803019 C 33.957054 91.281923 34.49948 91.573832 35.098791 91.664308 C 35.572382 91.858597 36.018558 91.956381 36.427436 91.953107 C 36.814658 91.957825 37.051751 91.911329 37.145933 91.810955 L 37.433213 91.81155 L 47.334105 91.815375 C 51.170577 91.810136 54.664002 91.964314 57.80716 92.280572 C 60.956762 92.569846 63.701103 93.205533 66.057285 94.189521 C 68.309401 95.269329 70.070841 96.841898 71.348822 98.904563 C 72.547057 101.062274 73.143421 103.967029 73.145133 107.616164 C 73.146085 111.929918 71.862895 115.36433 69.292899 117.91218 C 66.655271 120.476789 63.460602 122.443218 59.716109 123.808803 C 55.975054 125.205926 52.037627 126.093202 47.91371 126.475185 C 43.685297 126.862928 39.956848 127.049745 36.716591 127.048182 C 32.880118 127.053421 29.483108 126.716029 26.528226 126.043223 C 23.575665 125.443376 21.019689 124.606942 18.864851 123.524038 C 16.605516 122.446895 14.750415 121.220559 13.285111 119.850361 C 11.700531 118.55699 10.364044 117.180258 9.290085 115.714835 C 6.837608 112.469904 5.362972 108.741054 4.86085 104.513846 L 33.047408 105.995269 C 33.045205 107.455988 33.041023 108.778009 33.046634 109.948785 C 32.923429 111.126094 32.968481 112.159287 33.189009 113.0457 C 33.377999 113.93555 33.809663 114.571802 34.484001 114.954455 C 35.082033 115.463692 36.068655 115.714686 37.436651 115.710102 L 38.627192 115.7136 C 40.493262 115.52519 41.920807 115.326392 42.907935 115.134307 C 43.887072 114.920566 44.62206 114.378645 45.101128 113.521091 C 45.511018 112.631657 45.713879 111.203503 45.71693 109.233963 C 45.715859 107.364366 45.621617 104.708983 45.42965 101.277697 L 37.432558 101.27658 C 34.988401 101.276461 32.827312 101.22108 30.953845 101.100554 C 29.084247 101.101625 27.318715 101.006878 25.664466 100.813646 C 23.889051 100.714344 22.113204 100.524982 20.341481 100.235678 C 18.462596 99.944915 16.405051 99.547855 14.144525 99.045271 C 10.119062 98.160659 7.269079 96.194275 5.618893 93.145344 C 3.837227 90.095729 2.950546 85.871021 2.951633 80.473887 C 2.954267 79.103227 3.050563 77.386333 3.24052 75.323207 C 3.336295 73.360454 3.729143 71.247051 4.428947 68.987553 C 5.123855 66.803677 6.199882 64.585762 7.664249 62.331145 C 9.13171 60.173807 11.243 58.205339 13.998117 56.425742 C 16.76389 54.675018 20.251094 53.256761 24.479492 52.180079 C 28.698007 51.098842 33.863794 50.561981 39.957086 50.560389 C 44.589659 50.556594 48.614512 51.039546 52.053299 52.001254 C 55.386905 53.100202 58.228197 54.487472 60.58362 56.13608 C 62.955458 57.918059 64.877862 59.882315 66.339058 62.041395 C 67.730391 64.300075 68.858764 66.557386 69.724176 68.813327 C 71.593461 74.23371 72.242572 80.325871 71.666955 87.099694 L 43.950922 87.09316 Z M 43.631136 74.137637 " stroke="#ffbcd9" stroke-width="38.703526" stroke-opacity="1" stroke-miterlimit="4"/></g><g fill="#60019e" fill-opacity="1"><g transform="translate(181.863261, 478.754695)"><g><path d="M 18.59375 -12.203125 C 19.625 -12.578125 20.488281 -12.96875 21.1875 -13.375 C 21.84375 -13.769531 22.28125 -14.40625 22.5 -15.28125 C 22.726562 -16.101562 22.691406 -17.226562 22.390625 -18.65625 C 22.035156 -20.082031 21.359375 -21.957031 20.359375 -24.28125 L 14.09375 -22.03125 C 12.59375 -21.488281 11.269531 -21.039062 10.125 -20.6875 C 9 -20.28125 7.941406 -19.972656 6.953125 -19.765625 C 5.929688 -19.515625 4.976562 -19.359375 4.09375 -19.296875 C 3.1875 -19.179688 2.191406 -19.140625 1.109375 -19.171875 C -1.492188 -19.203125 -3.628906 -20.050781 -5.296875 -21.71875 C -7.003906 -23.382812 -8.535156 -26.09375 -9.890625 -29.84375 C -10.210938 -30.738281 -10.640625 -31.832031 -11.171875 -33.125 C -11.691406 -34.425781 -12.097656 -35.847656 -12.390625 -37.390625 C -12.722656 -38.898438 -12.859375 -40.515625 -12.796875 -42.234375 C -12.710938 -43.921875 -12.242188 -45.632812 -11.390625 -47.375 C -10.410156 -49.375 -8.867188 -51.28125 -6.765625 -53.09375 C -4.640625 -54.863281 -1.46875 -56.515625 2.75 -58.046875 C 5 -58.859375 7.070312 -59.363281 8.96875 -59.5625 C 10.820312 -59.707031 12.539062 -59.644531 14.125 -59.375 C 15.726562 -59.050781 17.175781 -58.566406 18.46875 -57.921875 C 19.738281 -57.203125 20.890625 -56.367188 21.921875 -55.421875 C 23.585938 -53.898438 24.945312 -52.191406 26 -50.296875 C 27.007812 -48.378906 27.816406 -46.578125 28.421875 -44.890625 C 29.097656 -42.890625 29.609375 -40.894531 29.953125 -38.90625 L 16.09375 -33.890625 L 13.859375 -40.078125 C 13.171875 -41.960938 12.429688 -43.347656 11.640625 -44.234375 C 10.796875 -45.085938 9.554688 -45.222656 7.921875 -44.640625 C 7.535156 -44.492188 7.140625 -44.328125 6.734375 -44.140625 C 6.347656 -43.878906 5.914062 -43.613281 5.4375 -43.34375 C 4.375 -42.644531 3.726562 -41.851562 3.5 -40.96875 C 3.25 -40.070312 3.25 -39.117188 3.5 -38.109375 C 3.71875 -37.066406 4.078125 -36.003906 4.578125 -34.921875 C 5.097656 -33.773438 5.550781 -32.664062 5.9375 -31.59375 C 6.445312 -30.1875 7.238281 -29.25 8.3125 -28.78125 C 9.34375 -28.257812 10.535156 -28.25 11.890625 -28.75 C 12.972656 -29.132812 14.003906 -29.519531 14.984375 -29.90625 C 15.921875 -30.25 16.859375 -30.585938 17.796875 -30.921875 C 19.910156 -31.679688 21.863281 -32.285156 23.65625 -32.734375 C 25.488281 -33.128906 27.164062 -33.203125 28.6875 -32.953125 C 30.21875 -32.671875 31.597656 -31.925781 32.828125 -30.71875 C 34.015625 -29.5 35.066406 -27.625 35.984375 -25.09375 C 36.691406 -23.125 36.9375 -21.328125 36.71875 -19.703125 C 36.46875 -18.078125 35.914062 -16.609375 35.0625 -15.296875 C 34.175781 -13.898438 33.078125 -12.675781 31.765625 -11.625 C 30.453125 -10.570312 29.085938 -9.65625 27.671875 -8.875 C 26.203125 -8.070312 24.773438 -7.398438 23.390625 -6.859375 C 21.960938 -6.234375 20.757812 -5.742188 19.78125 -5.390625 C 17.382812 -4.523438 15.238281 -3.992188 13.34375 -3.796875 C 11.40625 -3.566406 9.691406 -3.550781 8.203125 -3.75 C 6.691406 -3.945312 5.375 -4.351562 4.25 -4.96875 C 3.101562 -5.5 2.132812 -6.125 1.34375 -6.84375 C -0.59375 -8.53125 -1.96875 -10.738281 -2.78125 -13.46875 L 11.90625 -17.515625 C 12.289062 -16.429688 12.679688 -15.484375 13.078125 -14.671875 C 13.429688 -13.835938 13.847656 -13.191406 14.328125 -12.734375 C 14.835938 -12.234375 15.421875 -11.9375 16.078125 -11.84375 C 16.722656 -11.707031 17.515625 -11.8125 18.453125 -12.15625 Z M 18.59375 -12.203125 "/></g></g></g><g fill="#60019e" fill-opacity="1"><g transform="translate(220.492032, 464.8083)"><g><path d="M -2.703125 -17.75 C -3.242188 -20.03125 -3.6875 -22.332031 -4.03125 -24.65625 C -4.375 -26.925781 -4.242188 -29.132812 -3.640625 -31.28125 C -2.992188 -33.382812 -1.65625 -35.320312 0.375 -37.09375 C 2.375 -38.863281 5.460938 -40.34375 9.640625 -41.53125 L 11.15625 -41.90625 C 15.1875 -42.863281 18.4375 -43 20.90625 -42.3125 C 23.394531 -41.570312 25.398438 -40.378906 26.921875 -38.734375 C 28.410156 -37.035156 29.519531 -35.066406 30.25 -32.828125 C 31 -30.554688 31.628906 -28.347656 32.140625 -26.203125 C 32.710938 -23.835938 33.117188 -21.5 33.359375 -19.1875 C 33.609375 -16.832031 33.363281 -14.625 32.625 -12.5625 C 31.894531 -10.488281 30.46875 -8.628906 28.34375 -6.984375 C 26.21875 -5.304688 23.070312 -3.96875 18.90625 -2.96875 C 15.070312 -2.0625 11.910156 -1.898438 9.421875 -2.484375 C 6.867188 -3.054688 4.796875 -4.101562 3.203125 -5.625 C 1.578125 -7.070312 0.316406 -8.894531 -0.578125 -11.09375 C -1.441406 -13.25 -2.148438 -15.46875 -2.703125 -17.75 Z M 12.734375 -29.515625 C 11.617188 -29.046875 10.804688 -28.59375 10.296875 -28.15625 C 9.742188 -27.65625 9.414062 -27.066406 9.3125 -26.390625 C 9.175781 -25.691406 9.203125 -24.847656 9.390625 -23.859375 C 9.578125 -22.878906 9.851562 -21.613281 10.21875 -20.0625 C 10.582031 -18.550781 10.921875 -17.242188 11.234375 -16.140625 C 11.546875 -15.035156 11.929688 -14.15625 12.390625 -13.5 C 12.816406 -12.78125 13.390625 -12.328125 14.109375 -12.140625 C 14.785156 -11.890625 15.703125 -11.90625 16.859375 -12.1875 C 18.078125 -12.46875 18.953125 -12.878906 19.484375 -13.421875 C 20.035156 -13.910156 20.367188 -14.578125 20.484375 -15.421875 C 20.597656 -16.222656 20.550781 -17.1875 20.34375 -18.3125 C 20.070312 -19.425781 19.753906 -20.738281 19.390625 -22.25 C 19.066406 -23.601562 18.800781 -24.820312 18.59375 -25.90625 C 18.332031 -26.976562 18.046875 -27.863281 17.734375 -28.5625 C 17.421875 -29.238281 17 -29.722656 16.46875 -30.015625 C 15.925781 -30.296875 15.21875 -30.332031 14.34375 -30.125 C 13.914062 -30.019531 13.378906 -29.816406 12.734375 -29.515625 Z M 12.734375 -29.515625 "/></g></g></g><g fill="#60019e" fill-opacity="1"><g transform="translate(256.928024, 456.462339)"><g><path d="M 9.15625 -54.453125 L 15.3125 -2.390625 L 1.703125 -0.265625 L -6.46875 -51.125 Z M 9.15625 -54.453125 "/></g></g></g><g fill="#60019e" fill-opacity="1"><g transform="translate(274.10697, 453.27808)"><g><path d="M -0.375 -36.609375 L 12.921875 -38.46875 L 14.03125 -18.21875 C 14.144531 -16.769531 14.269531 -15.484375 14.40625 -14.359375 C 14.488281 -13.210938 14.679688 -12.242188 14.984375 -11.453125 C 15.296875 -10.671875 15.738281 -10.109375 16.3125 -9.765625 C 16.84375 -9.347656 17.609375 -9.179688 18.609375 -9.265625 C 18.710938 -9.265625 18.835938 -9.296875 18.984375 -9.359375 C 19.085938 -9.367188 19.210938 -9.378906 19.359375 -9.390625 C 20.585938 -9.578125 21.507812 -9.890625 22.125 -10.328125 C 22.738281 -10.773438 23.171875 -11.382812 23.421875 -12.15625 C 23.671875 -12.875 23.773438 -13.8125 23.734375 -14.96875 C 23.648438 -16.050781 23.550781 -17.367188 23.4375 -18.921875 L 21.953125 -38.25 L 35.15625 -40.109375 L 36.65625 -20.78125 C 36.832031 -18.351562 36.859375 -15.976562 36.734375 -13.65625 C 36.617188 -11.300781 36.03125 -9.160156 34.96875 -7.234375 C 33.90625 -5.304688 32.195312 -3.703125 29.84375 -2.421875 C 27.476562 -1.097656 24.160156 -0.273438 19.890625 0.046875 C 15.960938 0.328125 12.8125 -0.015625 10.4375 -0.984375 C 8.007812 -1.972656 6.132812 -3.335938 4.8125 -5.078125 C 3.425781 -6.785156 2.476562 -8.789062 1.96875 -11.09375 C 1.445312 -13.375 1.101562 -15.679688 0.9375 -18.015625 Z M -0.375 -36.609375 "/></g></g></g><g fill="#60019e" fill-opacity="1"><g transform="translate(312.368246, 450.389472)"><g><path d="M 21.171875 -25.109375 L 20.71875 -25.125 C 20.519531 -25.125 20.320312 -25.101562 20.125 -25.0625 C 18.914062 -24.90625 18.007812 -24.6875 17.40625 -24.40625 C 16.738281 -24.070312 16.269531 -23.585938 16 -22.953125 C 15.675781 -22.316406 15.472656 -21.5 15.390625 -20.5 C 15.304688 -19.5 15.234375 -18.203125 15.171875 -16.609375 C 15.117188 -15.054688 15.097656 -13.707031 15.109375 -12.5625 C 15.117188 -11.425781 15.257812 -10.476562 15.53125 -9.71875 C 15.75 -8.914062 16.179688 -8.328125 16.828125 -7.953125 C 17.410156 -7.535156 18.300781 -7.304688 19.5 -7.265625 C 20.695312 -7.222656 21.625 -7.363281 22.28125 -7.6875 C 22.945312 -7.96875 23.4375 -8.453125 23.75 -9.140625 C 24.070312 -9.773438 24.28125 -10.609375 24.375 -11.640625 C 24.457031 -12.640625 24.523438 -13.8125 24.578125 -15.15625 L 37.9375 -15.953125 C 37.800781 -13.773438 37.5 -11.671875 37.03125 -9.640625 C 36.570312 -7.609375 35.6875 -5.816406 34.375 -4.265625 C 33.070312 -2.710938 31.285156 -1.476562 29.015625 -0.5625 C 26.671875 0.351562 23.601562 0.769531 19.8125 0.6875 L 19.875 1.15625 C 20.726562 1.175781 21.394531 1.367188 21.875 1.734375 C 22.3125 2.160156 22.648438 2.597656 22.890625 3.046875 C 23.109375 3.554688 23.257812 4.164062 23.34375 4.875 C 23.300781 6.113281 23.066406 7.148438 22.640625 7.984375 C 22.160156 8.816406 21.535156 9.46875 20.765625 9.9375 C 20.003906 10.414062 19.117188 10.734375 18.109375 10.890625 C 17.097656 11.109375 16.019531 11.195312 14.875 11.15625 L 13.75 11.125 C 13.351562 11.101562 13.03125 11.0625 12.78125 11 L 12.96875 5.921875 C 13.257812 6.035156 13.578125 6.148438 13.921875 6.265625 C 14.222656 6.328125 14.550781 6.382812 14.90625 6.4375 C 15.25 6.5 15.617188 6.535156 16.015625 6.546875 C 16.671875 6.578125 17.25 6.472656 17.75 6.234375 C 18.25 6.003906 18.515625 5.492188 18.546875 4.703125 C 18.566406 4.097656 18.410156 3.691406 18.078125 3.484375 C 17.722656 3.328125 17.300781 3.238281 16.8125 3.21875 C 16.5625 3.207031 16.3125 3.195312 16.0625 3.1875 C 15.757812 3.21875 15.507812 3.234375 15.3125 3.234375 L 15.625 0.390625 C 12.507812 -0.0664062 10.050781 -0.953125 8.25 -2.265625 C 6.394531 -3.523438 5.023438 -5.066406 4.140625 -6.890625 C 3.203125 -8.679688 2.625 -10.675781 2.40625 -12.875 C 2.175781 -15.03125 2.097656 -17.179688 2.171875 -19.328125 C 2.253906 -21.671875 2.4375 -23.929688 2.71875 -26.109375 C 2.988281 -28.242188 3.703125 -30.171875 4.859375 -31.890625 C 6.015625 -33.546875 7.8125 -34.878906 10.25 -35.890625 C 12.625 -36.898438 15.984375 -37.425781 20.328125 -37.46875 C 23.710938 -37.351562 26.546875 -36.910156 28.828125 -36.140625 C 31.097656 -35.316406 32.929688 -34.128906 34.328125 -32.578125 C 35.671875 -31.035156 36.625 -29.101562 37.1875 -26.78125 C 37.757812 -24.414062 38.035156 -21.609375 38.015625 -18.359375 L 24.671875 -18 C 24.703125 -18.851562 24.679688 -19.707031 24.609375 -20.5625 C 24.535156 -21.363281 24.382812 -22.117188 24.15625 -22.828125 C 23.9375 -23.484375 23.582031 -24.015625 23.09375 -24.421875 C 22.613281 -24.847656 21.972656 -25.078125 21.171875 -25.109375 Z M 21.171875 -25.109375 "/></g></g></g><g fill="#60019e" fill-opacity="1"><g transform="translate(349.260288, 451.577886)"><g><path d="M 18.671875 4.171875 C 14.773438 3.617188 11.773438 2.613281 9.671875 1.15625 C 7.515625 -0.320312 5.972656 -2.054688 5.046875 -4.046875 C 4.054688 -5.992188 3.554688 -8.15625 3.546875 -10.53125 C 3.523438 -12.851562 3.679688 -15.175781 4.015625 -17.5 C 4.335938 -19.8125 4.765625 -22.117188 5.296875 -24.421875 C 5.816406 -26.660156 6.753906 -28.664062 8.109375 -30.4375 C 9.472656 -32.15625 11.425781 -33.46875 13.96875 -34.375 C 16.46875 -35.28125 19.882812 -35.523438 24.21875 -35.109375 L 25.765625 -34.890625 C 29.867188 -34.304688 32.941406 -33.238281 34.984375 -31.6875 C 37.023438 -30.082031 38.445312 -28.238281 39.25 -26.15625 C 40.007812 -24.03125 40.320312 -21.789062 40.1875 -19.4375 C 40.050781 -17.039062 39.828125 -14.753906 39.515625 -12.578125 C 39.171875 -10.171875 38.6875 -7.847656 38.0625 -5.609375 C 37.445312 -3.328125 36.414062 -1.359375 34.96875 0.296875 C 33.519531 1.953125 31.503906 3.15625 28.921875 3.90625 C 26.335938 4.6875 22.921875 4.773438 18.671875 4.171875 Z M 31.09375 -43.125 C 31.632812 -43.050781 32.179688 -43.195312 32.734375 -43.5625 C 33.242188 -43.894531 33.738281 -44.328125 34.21875 -44.859375 C 34.644531 -45.410156 35.054688 -46.007812 35.453125 -46.65625 C 35.785156 -47.269531 36.0625 -47.8125 36.28125 -48.28125 L 40.875 -41.1875 C 40.164062 -40.488281 39.4375 -39.789062 38.6875 -39.09375 C 37.925781 -38.351562 37.125 -37.6875 36.28125 -37.09375 C 35.4375 -36.507812 34.566406 -36.046875 33.671875 -35.703125 C 32.710938 -35.398438 31.71875 -35.320312 30.6875 -35.46875 C 29.195312 -35.675781 28 -36.125 27.09375 -36.8125 C 26.175781 -37.445312 25.378906 -38.191406 24.703125 -39.046875 C 23.953125 -39.859375 23.253906 -40.664062 22.609375 -41.46875 C 21.910156 -42.207031 21.0625 -42.804688 20.0625 -43.265625 C 18.289062 -43.515625 16.5625 -41.4375 14.875 -37.03125 L 11 -43.703125 C 11.894531 -46.503906 13.179688 -48.488281 14.859375 -49.65625 C 16.492188 -50.84375 18.769531 -51.226562 21.6875 -50.8125 C 22.8125 -50.59375 23.800781 -50.125 24.65625 -49.40625 C 25.445312 -48.632812 26.191406 -47.851562 26.890625 -47.0625 C 27.578125 -46.195312 28.242188 -45.394531 28.890625 -44.65625 C 29.535156 -43.90625 30.269531 -43.394531 31.09375 -43.125 Z M 26.21875 -13.578125 C 26.414062 -14.960938 26.609375 -16.191406 26.796875 -17.265625 C 26.953125 -18.359375 27.015625 -19.285156 26.984375 -20.046875 C 26.941406 -20.796875 26.722656 -21.40625 26.328125 -21.875 C 25.929688 -22.332031 25.289062 -22.625 24.40625 -22.75 C 23.957031 -22.8125 23.382812 -22.820312 22.6875 -22.78125 C 21.46875 -22.757812 20.539062 -22.640625 19.90625 -22.421875 C 19.207031 -22.148438 18.6875 -21.71875 18.34375 -21.125 C 17.96875 -20.53125 17.6875 -19.742188 17.5 -18.765625 C 17.300781 -17.765625 17.09375 -16.476562 16.875 -14.90625 C 16.65625 -13.375 16.488281 -12.039062 16.375 -10.90625 C 16.269531 -9.757812 16.304688 -8.789062 16.484375 -8 C 16.617188 -7.175781 16.984375 -6.550781 17.578125 -6.125 C 18.117188 -5.644531 18.984375 -5.316406 20.171875 -5.140625 C 21.398438 -4.960938 22.363281 -5.03125 23.0625 -5.34375 C 23.75 -5.59375 24.300781 -6.085938 24.71875 -6.828125 C 25.125 -7.535156 25.429688 -8.453125 25.640625 -9.578125 C 25.804688 -10.710938 26 -12.046875 26.21875 -13.578125 Z M 26.21875 -13.578125 "/></g></g></g><g fill="#60019e" fill-opacity="1"><g transform="translate(385.816641, 456.683383)"><g><path d="M 40.078125 -6.140625 C 39.472656 -3.972656 38.726562 -1.953125 37.84375 -0.078125 C 36.894531 1.847656 35.617188 3.429688 34.015625 4.671875 C 32.367188 5.910156 30.296875 6.703125 27.796875 7.046875 C 25.222656 7.421875 22 7.117188 18.125 6.140625 C 14.300781 5.171875 11.421875 3.847656 9.484375 2.171875 C 7.503906 0.484375 6.15625 -1.398438 5.4375 -3.484375 C 4.664062 -5.523438 4.398438 -7.726562 4.640625 -10.09375 C 4.867188 -12.40625 5.269531 -14.695312 5.84375 -16.96875 C 6.414062 -19.238281 7.085938 -21.488281 7.859375 -23.71875 C 8.617188 -25.882812 9.769531 -27.78125 11.3125 -29.40625 C 12.832031 -30.96875 14.910156 -32.0625 17.546875 -32.6875 C 20.117188 -33.332031 23.539062 -33.210938 27.8125 -32.328125 L 29.03125 -32.015625 C 32.757812 -31.078125 35.546875 -29.703125 37.390625 -27.890625 C 39.203125 -26.046875 40.4375 -24.007812 41.09375 -21.78125 C 41.726562 -19.570312 41.929688 -17.300781 41.703125 -14.96875 C 41.460938 -12.613281 41.117188 -10.441406 40.671875 -8.453125 L 18.109375 -12.09375 C 17.691406 -10.445312 17.363281 -9.035156 17.125 -7.859375 C 16.863281 -6.628906 16.78125 -5.59375 16.875 -4.75 C 16.914062 -3.914062 17.21875 -3.25 17.78125 -2.75 C 18.25 -2.21875 19.0625 -1.804688 20.21875 -1.515625 C 21.382812 -1.210938 22.320312 -1.148438 23.03125 -1.328125 C 23.738281 -1.460938 24.320312 -1.832031 24.78125 -2.4375 C 25.226562 -3 25.601562 -3.757812 25.90625 -4.71875 C 26.195312 -5.664062 26.507812 -6.789062 26.84375 -8.09375 Z M 28.34375 -14.671875 L 28.265625 -14.6875 L 29.0625 -20.203125 C 29.101562 -20.960938 28.875 -21.691406 28.375 -22.390625 C 27.875 -23.066406 27.1875 -23.519531 26.3125 -23.75 C 25.78125 -23.882812 25.210938 -23.957031 24.609375 -23.96875 C 23.992188 -23.96875 23.425781 -23.875 22.90625 -23.6875 C 22.34375 -23.519531 21.863281 -23.253906 21.46875 -22.890625 C 21.019531 -22.535156 20.71875 -22.046875 20.5625 -21.421875 L 19.125 -16.078125 L 19.109375 -16 L 28.265625 -14.6875 L 28.25 -14.625 Z M 28.34375 -14.671875 "/></g></g></g><g fill="#60019e" fill-opacity="1"><g transform="translate(421.634666, 465.675983)"><g><path d="M 29.71875 -16.5625 C 29.90625 -17.070312 29.894531 -17.6875 29.6875 -18.40625 C 29.476562 -19.113281 28.945312 -19.625 28.09375 -19.9375 C 27.90625 -20.007812 27.707031 -20.054688 27.5 -20.078125 C 27.257812 -20.117188 27.003906 -20.140625 26.734375 -20.140625 C 26.035156 -20.117188 25.492188 -19.941406 25.109375 -19.609375 C 24.660156 -19.296875 24.285156 -18.851562 23.984375 -18.28125 C 23.648438 -17.65625 23.347656 -16.910156 23.078125 -16.046875 C 22.765625 -15.203125 22.425781 -14.289062 22.0625 -13.3125 C 21.800781 -12.613281 21.695312 -12.039062 21.75 -11.59375 C 21.726562 -11.125 21.796875 -10.726562 21.953125 -10.40625 C 22.085938 -10.082031 22.289062 -9.847656 22.5625 -9.703125 C 22.769531 -9.523438 22.96875 -9.398438 23.15625 -9.328125 C 23.34375 -9.265625 23.460938 -9.242188 23.515625 -9.265625 L 23.671875 -9.21875 L 28.375 -7.46875 C 30.1875 -6.800781 31.820312 -6.117188 33.28125 -5.421875 C 34.71875 -4.734375 35.914062 -3.945312 36.875 -3.0625 C 37.75 -2.144531 38.316406 -1.085938 38.578125 0.109375 C 38.753906 1.359375 38.523438 2.847656 37.890625 4.578125 C 37.128906 6.640625 35.914062 8.046875 34.25 8.796875 C 32.53125 9.554688 30.660156 9.9375 28.640625 9.9375 C 26.617188 9.9375 24.59375 9.664062 22.5625 9.125 C 20.476562 8.570312 18.664062 8.007812 17.125 7.4375 C 15.300781 6.757812 13.742188 6 12.453125 5.15625 C 11.148438 4.363281 10.082031 3.515625 9.25 2.609375 C 8.363281 1.691406 7.6875 0.773438 7.21875 -0.140625 C 6.695312 -1.015625 6.3125 -1.894531 6.0625 -2.78125 C 5.457031 -4.769531 5.410156 -6.8125 5.921875 -8.90625 L 19.078125 -3.25 C 18.816406 -2.539062 18.582031 -1.910156 18.375 -1.359375 C 18.113281 -0.804688 17.953125 -0.304688 17.890625 0.140625 C 17.828125 0.585938 17.929688 0.96875 18.203125 1.28125 C 18.398438 1.625 18.828125 1.914062 19.484375 2.15625 L 20.03125 2.375 C 20.957031 2.601562 21.671875 2.757812 22.171875 2.84375 C 22.679688 2.90625 23.125 2.773438 23.5 2.453125 C 23.84375 2.097656 24.191406 1.453125 24.546875 0.515625 C 24.867188 -0.378906 25.285156 -1.65625 25.796875 -3.3125 L 22.015625 -4.71875 C 20.835938 -5.144531 19.816406 -5.550781 18.953125 -5.9375 C 18.054688 -6.257812 17.222656 -6.617188 16.453125 -7.015625 C 15.640625 -7.359375 14.835938 -7.757812 14.046875 -8.21875 C 13.210938 -8.6875 12.300781 -9.238281 11.3125 -9.875 C 9.539062 -11 8.523438 -12.4375 8.265625 -14.1875 C 7.960938 -15.945312 8.285156 -18.113281 9.234375 -20.6875 C 9.472656 -21.34375 9.820312 -22.144531 10.28125 -23.09375 C 10.664062 -24.007812 11.222656 -24.941406 11.953125 -25.890625 C 12.660156 -26.816406 13.566406 -27.6875 14.671875 -28.5 C 15.742188 -29.269531 17.09375 -29.828125 18.71875 -30.171875 C 20.34375 -30.546875 22.253906 -30.617188 24.453125 -30.390625 C 26.660156 -30.148438 29.21875 -29.5 32.125 -28.4375 C 34.320312 -27.625 36.148438 -26.679688 37.609375 -25.609375 C 39.015625 -24.503906 40.132812 -23.347656 40.96875 -22.140625 C 41.78125 -20.878906 42.34375 -19.601562 42.65625 -18.3125 C 42.914062 -16.988281 43.0625 -15.710938 43.09375 -14.484375 C 43.03125 -11.585938 42.257812 -8.578125 40.78125 -5.453125 L 27.578125 -10.328125 Z M 29.71875 -16.5625 "/></g></g></g><path stroke-linecap="butt" transform="matrix(1.019706, -0.172541, 0.172541, 1.019706, 240.056132, 365.193004)" fill="none" stroke-linejoin="miter" d="M 0.485614 40.000955 L 8.226304 6.592551 L 21.692768 6.109189 L 29.434862 39.999818 L 19.517071 39.999535 L 18.346974 33.557407 L 11.574289 33.556821 L 10.415207 39.999404 Z M 17.674515 28.770095 L 16.170549 19.229852 L 13.74947 19.23008 L 12.24618 28.770967 Z M 17.674515 28.770095 " stroke="#ffbcd9" stroke-width="12.71151" stroke-opacity="1" stroke-miterlimit="4"/><path stroke-linecap="butt" transform="matrix(1.027325, -0.119055, 0.119055, 1.027325, 271.657169, 360.116089)" fill="none" stroke-linejoin="miter" d="M 11.276446 6.106443 L 10.02542 40.0001 L 1.112557 40.001442 L 0.969361 6.68767 Z M 11.276446 6.106443 " stroke="#ffbcd9" stroke-width="12.71151" stroke-opacity="1" stroke-miterlimit="4"/><path stroke-linecap="butt" transform="matrix(1.031812, -0.0702492, 0.0702492, 1.031812, 285.14578, 358.404247)" fill="none" stroke-linejoin="miter" d="M 0.970851 28.42758 C 0.967962 26.913057 1.033416 25.395616 1.159677 23.874743 C 1.290652 22.395835 1.713427 21.023867 2.423974 19.762352 C 3.132469 18.530983 4.265265 17.517793 5.815593 16.710963 C 7.328239 15.901568 9.487869 15.431515 12.294229 15.304573 L 13.312533 15.305758 C 15.989069 15.306266 18.059031 15.708417 19.51865 16.511954 C 20.968166 17.352662 22.047294 18.406659 22.756547 19.666408 C 23.433345 20.95802 23.841146 22.363821 23.972929 23.875762 C 24.098121 25.428898 24.163612 26.91361 24.161611 28.333155 C 24.16365 29.915764 24.062998 31.449738 23.867447 32.931821 C 23.677381 34.444564 23.195083 35.801122 22.413273 36.997213 C 21.642768 38.194073 20.461065 39.147146 18.879467 39.857202 C 17.303353 40.597917 15.124014 40.968197 12.341451 40.968042 C 9.797319 40.968976 7.778062 40.600564 6.287703 39.859292 C 4.774735 39.116482 3.632924 38.149077 2.859016 36.949285 C 2.048627 35.784867 1.534205 34.443737 1.311725 32.929407 C 1.083169 31.448736 0.969458 29.949383 0.970851 28.42758 Z M 2.329339 14.53527 L 8.912163 6.594085 L 17.142521 6.594134 C 17.108606 6.591825 17.254305 6.78725 17.576363 7.172615 L 18.783568 8.625271 C 19.273678 9.211368 19.806444 9.838228 20.381094 10.517154 C 20.961228 11.226741 21.500503 11.869187 21.987615 12.443723 C 22.466421 13.029051 22.887835 13.51204 23.24004 13.899457 C 23.563301 14.322762 23.707717 14.537029 23.677314 14.538745 L 16.359489 14.536464 L 13.025423 9.736205 L 9.681336 14.536091 Z M 9.444741 28.909866 C 9.444583 29.913096 9.46094 30.784947 9.493815 31.525419 C 9.52292 32.265635 9.632604 32.878833 9.82261 33.368782 C 9.988466 33.879801 10.281147 34.251809 10.697141 34.480779 C 11.084704 34.738101 11.666409 34.868565 12.44628 34.868659 C 13.25253 34.87055 13.863499 34.737999 14.278674 34.478544 C 14.70687 34.250262 15.012154 33.881107 15.202318 33.367826 C 15.398223 32.881436 15.512155 32.264534 15.543599 31.524655 C 15.544897 30.782724 15.543612 29.911899 15.543514 28.912437 C 15.544795 28.003928 15.56176 27.198705 15.591152 26.488973 C 15.594165 25.777445 15.543748 25.183425 15.451463 24.703915 C 15.348386 24.216099 15.150683 23.8392 14.857842 23.580756 C 14.57605 23.32685 14.141567 23.202624 13.558676 23.200797 C 13.266974 23.203652 12.896569 23.250364 12.447206 23.344702 C 11.666405 23.469475 11.083787 23.630457 10.699351 23.827646 C 10.28246 24.056698 9.987792 24.381146 9.82314 24.797733 C 9.635622 25.216549 9.523823 25.746523 9.490999 26.395448 C 9.462201 27.040862 9.446696 27.880257 9.444741 28.909866 Z M 9.444741 28.909866 " stroke="#ffbcd9" stroke-width="12.71151" stroke-opacity="1" stroke-miterlimit="4"/><g fill="#60019e" fill-opacity="1"><g transform="translate(246.957776, 405.981253)"><g><path d="M 0.5 -0.078125 L 2.625 -35.484375 L 16.28125 -38.328125 L 30.03125 -5.078125 L 19.90625 -3.375 L 17.609375 -9.734375 L 10.6875 -8.5625 L 10.609375 -1.796875 Z M 16.09375 -14.515625 L 12.90625 -23.984375 L 10.4375 -23.5625 L 10.5625 -13.578125 Z M 16.09375 -14.515625 "/></g></g></g><g fill="#60019e" fill-opacity="1"><g transform="translate(276.419371, 401.209099)"><g><path d="M 7.5625 -36.171875 L 10.296875 -1.1875 L 1.15625 -0.140625 L -2.96875 -34.328125 Z M 7.5625 -36.171875 "/></g></g></g><g fill="#60019e" fill-opacity="1"><g transform="translate(287.955749, 399.676734)"><g><path d="M 0.1875 -12 C 0.0820312 -13.570312 0.046875 -15.144531 0.078125 -16.71875 C 0.0976562 -18.257812 0.429688 -19.707031 1.078125 -21.0625 C 1.722656 -22.375 2.816406 -23.5 4.359375 -24.4375 C 5.867188 -25.375 8.066406 -26.007812 10.953125 -26.34375 L 12 -26.421875 C 14.757812 -26.609375 16.921875 -26.332031 18.484375 -25.59375 C 20.046875 -24.84375 21.238281 -23.835938 22.0625 -22.578125 C 22.84375 -21.296875 23.351562 -19.878906 23.59375 -18.328125 C 23.832031 -16.734375 24.003906 -15.203125 24.109375 -13.734375 C 24.210938 -12.109375 24.21875 -10.519531 24.125 -8.96875 C 24.03125 -7.382812 23.628906 -5.957031 22.921875 -4.6875 C 22.210938 -3.394531 21.0625 -2.328125 19.46875 -1.484375 C 17.882812 -0.597656 15.660156 -0.0546875 12.796875 0.140625 C 10.171875 0.316406 8.066406 0.0703125 6.484375 -0.59375 C 4.859375 -1.25 3.609375 -2.171875 2.734375 -3.359375 C 1.816406 -4.484375 1.191406 -5.828125 0.859375 -7.390625 C 0.515625 -8.898438 0.289062 -10.4375 0.1875 -12 Z M 0.609375 -26.4375 L 6.859375 -35.09375 L 15.34375 -35.671875 C 15.300781 -35.671875 15.457031 -35.484375 15.8125 -35.109375 L 17.1875 -33.6875 C 17.726562 -33.125 18.316406 -32.515625 18.953125 -31.859375 C 19.609375 -31.171875 20.207031 -30.546875 20.75 -29.984375 C 21.289062 -29.410156 21.753906 -28.929688 22.140625 -28.546875 C 22.492188 -28.148438 22.65625 -27.945312 22.625 -27.9375 L 15.078125 -27.4375 L 11.3125 -32.140625 L 8.203125 -26.96875 Z M 8.96875 -12.09375 C 9.039062 -11.070312 9.117188 -10.179688 9.203125 -9.421875 C 9.285156 -8.648438 9.441406 -8.019531 9.671875 -7.53125 C 9.878906 -7.007812 10.203125 -6.644531 10.640625 -6.4375 C 11.066406 -6.207031 11.679688 -6.117188 12.484375 -6.171875 C 13.316406 -6.222656 13.9375 -6.394531 14.34375 -6.6875 C 14.769531 -6.957031 15.0625 -7.363281 15.21875 -7.90625 C 15.394531 -8.425781 15.472656 -9.070312 15.453125 -9.84375 C 15.398438 -10.613281 15.335938 -11.507812 15.265625 -12.53125 C 15.203125 -13.46875 15.160156 -14.300781 15.140625 -15.03125 C 15.085938 -15.769531 14.992188 -16.382812 14.859375 -16.875 C 14.734375 -17.375 14.507812 -17.738281 14.1875 -17.96875 C 13.863281 -18.21875 13.398438 -18.320312 12.796875 -18.28125 C 12.503906 -18.257812 12.128906 -18.1875 11.671875 -18.0625 C 10.878906 -17.875 10.285156 -17.664062 9.890625 -17.4375 C 9.484375 -17.175781 9.210938 -16.820312 9.078125 -16.375 C 8.898438 -15.9375 8.820312 -15.382812 8.84375 -14.71875 C 8.851562 -14.039062 8.894531 -13.164062 8.96875 -12.09375 Z M 8.96875 -12.09375 "/></g></g></g></svg>