<svg xmlns="http://www.w3.org/2000/svg" xmlns:xlink="http://www.w3.org/1999/xlink" width="50" zoomAndPan="magnify" viewBox="0 0 37.5 37.499999" height="50" preserveAspectRatio="xMidYMid meet" version="1.0"><defs><clipPath id="4be6a3647a"><path d="M 1 4.375 L 36.390625 4.375 L 36.390625 32.5 L 1 32.5 Z M 1 4.375 " clip-rule="nonzero"/></clipPath></defs><g clip-path="url(#4be6a3647a)"><path fill="#000000" d="M 36.203125 17.277344 L 35.785156 16.113281 C 35.558594 15.476562 34.84375 14.953125 34.203125 14.953125 L 32.730469 14.953125 C 31.636719 11.914062 30.316406 8.242188 29.902344 7.378906 C 29.300781 6.03125 27.375 5.429688 26.320312 5.128906 C 26.320312 5.128906 24.546875 4.453125 18.628906 4.453125 C 12.707031 4.453125 10.972656 5.128906 10.972656 5.128906 C 9.726562 5.542969 7.992188 6.140625 7.3125 7.417969 C 6.972656 8.054688 5.617188 11.804688 4.523438 14.953125 L 3.089844 14.953125 C 2.449219 14.953125 1.730469 15.476562 1.503906 16.113281 L 1.089844 17.277344 C 0.863281 17.914062 1.203125 18.4375 1.84375 18.4375 L 3.316406 18.4375 C 3.125 18.964844 3.011719 19.261719 3.011719 19.261719 C 2.902344 19.449219 2.824219 20.3125 2.824219 20.574219 L 2.824219 31.183594 C 2.824219 31.859375 3.390625 32.421875 4.070312 32.421875 L 8.59375 32.421875 C 9.273438 32.421875 9.839844 31.859375 9.839844 31.183594 L 9.839844 28.9375 L 27.453125 28.9375 L 27.453125 31.183594 C 27.453125 31.859375 28.019531 32.421875 28.695312 32.421875 L 33.261719 32.421875 C 33.9375 32.421875 34.503906 31.859375 34.503906 31.183594 L 34.503906 20.574219 C 34.503906 20.351562 34.429688 19.449219 34.316406 19.261719 C 34.316406 19.261719 34.203125 18.964844 34.015625 18.4375 L 35.449219 18.4375 C 36.050781 18.4375 36.390625 17.914062 36.203125 17.277344 Z M 9.839844 23.800781 L 8.332031 22.789062 C 5.539062 22.5625 5.199219 23.539062 4.597656 22.488281 L 4.597656 21.214844 C 4.597656 19.976562 5.3125 19.9375 6.105469 19.9375 C 6.859375 19.9375 8.367188 20.574219 9.386719 21.027344 C 10.480469 21.511719 11.273438 21.101562 11.6875 22.710938 C 11.648438 23.460938 11.234375 23.800781 9.839844 23.800781 Z M 7.199219 15.441406 C 8.144531 11.617188 9.726562 8.953125 9.953125 8.316406 C 10.105469 7.867188 9.726562 7.042969 18.664062 7.042969 C 27.601562 7.042969 27.113281 8.242188 27.148438 8.277344 C 27.566406 9.140625 29.222656 11.953125 30.09375 15.441406 C 30.09375 15.441406 26.734375 15.890625 19.078125 15.890625 C 11.421875 15.890625 7.199219 15.441406 7.199219 15.441406 Z M 25.640625 22.710938 C 27.414062 20.539062 26.847656 21.511719 27.941406 21.027344 C 28.921875 20.574219 30.46875 19.9375 31.222656 19.9375 C 32.015625 19.9375 32.730469 19.976562 32.730469 21.214844 L 32.730469 22.488281 C 32.167969 23.5 31.675781 22.601562 28.847656 22.863281 L 27.453125 23.761719 C 26.054688 23.800781 25.152344 23.273438 25.640625 22.710938 Z M 25.640625 22.710938 " fill-opacity="1" fill-rule="nonzero"/></g></svg>