<svg xmlns="http://www.w3.org/2000/svg" xmlns:xlink="http://www.w3.org/1999/xlink" width="50" zoomAndPan="magnify" viewBox="0 0 37.5 37.499999" height="50" preserveAspectRatio="xMidYMid meet" version="1.0"><defs><clipPath id="7c400d383a"><path d="M 7 8 L 35.9375 8 L 35.9375 25 L 7 25 Z M 7 8 " clip-rule="nonzero"/></clipPath><clipPath id="a20540de1d"><path d="M 1.152344 2.171875 L 35 2.171875 L 35 29 L 1.152344 29 Z M 1.152344 2.171875 " clip-rule="nonzero"/></clipPath><clipPath id="23747d7676"><path d="M 28 29 L 34 29 L 34 34.734375 L 28 34.734375 Z M 28 29 " clip-rule="nonzero"/></clipPath><clipPath id="64945e2d9c"><path d="M 10 29 L 17 29 L 17 34.734375 L 10 34.734375 Z M 10 29 " clip-rule="nonzero"/></clipPath></defs><g clip-path="url(#7c400d383a)"><path fill="#000000" d="M 21.445312 8.179688 C 25.707031 8.179688 29.96875 8.179688 34.230469 8.175781 C 34.597656 8.175781 34.949219 8.195312 35.277344 8.394531 C 35.683594 8.644531 35.9375 9.152344 35.855469 9.613281 C 35.5625 11.265625 35.257812 12.917969 34.964844 14.570312 C 34.601562 16.625 34.238281 18.675781 33.878906 20.730469 C 33.847656 20.894531 33.804688 21.058594 33.765625 21.21875 C 33.59375 21.910156 33.214844 22.253906 32.511719 22.3125 C 31.140625 22.421875 29.765625 22.511719 28.394531 22.625 C 26.929688 22.746094 25.464844 22.886719 24 23.015625 C 23.375 23.070312 22.75 23.121094 22.125 23.167969 C 20.628906 23.277344 19.136719 23.378906 17.644531 23.492188 C 15.792969 23.636719 13.941406 23.78125 12.089844 23.933594 C 11.632812 23.972656 11.175781 24.042969 10.71875 24.050781 C 10.070312 24.058594 9.613281 23.703125 9.480469 23.0625 C 9.265625 22.03125 9.089844 20.992188 8.902344 19.953125 C 8.476562 17.621094 8.046875 15.289062 7.621094 12.953125 C 7.429688 11.894531 7.234375 10.832031 7.046875 9.773438 C 6.890625 8.898438 7.464844 8.210938 8.375 8.1875 C 8.761719 8.175781 9.148438 8.183594 9.535156 8.183594 Z M 16.179688 14.230469 L 14.949219 14.230469 C 14.925781 14.230469 14.898438 14.230469 14.875 14.230469 C 14.265625 14.226562 14.203125 14.152344 14.253906 14.839844 C 14.316406 15.652344 14.371094 16.464844 14.4375 17.277344 C 14.46875 17.628906 14.550781 17.691406 14.894531 17.667969 C 15.472656 17.632812 16.046875 17.59375 16.625 17.550781 C 17.007812 17.523438 17.386719 17.476562 17.773438 17.453125 C 18.019531 17.441406 18.199219 17.402344 18.097656 17.078125 C 18.054688 16.949219 18.082031 16.792969 18.078125 16.648438 C 18.066406 15.957031 18.050781 15.257812 18.050781 14.5625 C 18.050781 14.308594 17.941406 14.222656 17.699219 14.226562 C 17.195312 14.234375 16.6875 14.230469 16.179688 14.230469 Z M 21.582031 9.761719 C 21.003906 9.761719 20.421875 9.765625 19.84375 9.757812 C 19.601562 9.753906 19.492188 9.835938 19.503906 10.089844 C 19.546875 10.902344 19.582031 11.714844 19.621094 12.527344 C 19.628906 12.703125 19.726562 12.777344 19.902344 12.777344 C 20.191406 12.773438 20.480469 12.777344 20.769531 12.777344 C 21.566406 12.777344 22.363281 12.773438 23.15625 12.777344 C 23.382812 12.777344 23.539062 12.703125 23.546875 12.460938 C 23.566406 11.644531 23.578125 10.828125 23.585938 10.011719 C 23.585938 9.839844 23.5 9.757812 23.316406 9.757812 C 22.738281 9.761719 22.160156 9.761719 21.582031 9.761719 Z M 27.359375 9.761719 C 26.78125 9.761719 26.199219 9.765625 25.621094 9.761719 C 25.367188 9.757812 25.199219 9.839844 25.195312 10.121094 C 25.179688 10.914062 25.171875 11.703125 25.15625 12.496094 C 25.152344 12.714844 25.269531 12.78125 25.46875 12.777344 C 26.582031 12.777344 27.6875 12.777344 28.800781 12.777344 C 28.960938 12.777344 29.082031 12.71875 29.09375 12.539062 C 29.15625 11.730469 29.210938 10.917969 29.273438 10.105469 C 29.292969 9.867188 29.203125 9.757812 28.949219 9.761719 C 28.421875 9.769531 27.890625 9.761719 27.359375 9.761719 Z M 15.914062 9.761719 C 15.335938 9.761719 14.757812 9.753906 14.175781 9.761719 C 13.828125 9.769531 13.808594 9.78125 13.828125 10.140625 C 13.875 10.90625 13.945312 11.667969 14.003906 12.433594 C 14.023438 12.714844 14.191406 12.78125 14.445312 12.78125 C 15.484375 12.773438 16.519531 12.769531 17.558594 12.78125 C 17.835938 12.785156 17.953125 12.695312 17.945312 12.414062 C 17.925781 11.644531 17.90625 10.878906 17.914062 10.109375 C 17.914062 9.804688 17.757812 9.753906 17.507812 9.757812 C 16.976562 9.765625 16.445312 9.761719 15.914062 9.761719 Z M 21.605469 14.230469 C 21.074219 14.230469 20.539062 14.234375 20.011719 14.226562 C 19.785156 14.226562 19.636719 14.269531 19.652344 14.539062 C 19.695312 15.402344 19.730469 16.265625 19.769531 17.128906 C 19.777344 17.296875 19.855469 17.390625 20.042969 17.378906 C 20.910156 17.328125 21.777344 17.289062 22.644531 17.234375 C 22.8125 17.226562 22.976562 17.175781 23.140625 17.160156 C 23.363281 17.140625 23.414062 17.011719 23.417969 16.816406 C 23.421875 16.070312 23.425781 15.324219 23.453125 14.578125 C 23.464844 14.269531 23.3125 14.222656 23.058594 14.226562 C 22.574219 14.234375 22.089844 14.230469 21.605469 14.230469 Z M 27.042969 14.230469 C 26.484375 14.230469 25.929688 14.234375 25.375 14.230469 C 25.179688 14.230469 25.050781 14.28125 25.050781 14.507812 C 25.042969 15.277344 25.027344 16.046875 25.015625 16.816406 C 25.011719 17.035156 25.113281 17.101562 25.332031 17.089844 C 26.078125 17.039062 26.824219 17.007812 27.570312 16.960938 C 27.859375 16.941406 28.144531 16.886719 28.429688 16.867188 C 28.613281 16.855469 28.683594 16.753906 28.707031 16.597656 C 28.738281 16.410156 28.773438 16.21875 28.789062 16.03125 C 28.835938 15.554688 28.867188 15.074219 28.914062 14.597656 C 28.945312 14.285156 28.917969 14.238281 28.566406 14.230469 C 28.058594 14.222656 27.550781 14.230469 27.042969 14.230469 Z M 11.082031 14.230469 C 10.742188 14.230469 10.40625 14.226562 10.066406 14.230469 C 9.574219 14.238281 9.542969 14.246094 9.613281 14.710938 C 9.753906 15.660156 9.925781 16.605469 10.089844 17.546875 C 10.121094 17.71875 10.203125 17.871094 10.421875 17.863281 C 11.097656 17.839844 11.777344 17.832031 12.449219 17.78125 C 12.808594 17.753906 12.851562 17.683594 12.828125 17.3125 C 12.777344 16.476562 12.703125 15.636719 12.636719 14.796875 C 12.632812 14.726562 12.585938 14.660156 12.582031 14.589844 C 12.566406 14.332031 12.457031 14.207031 12.171875 14.222656 C 11.808594 14.246094 11.445312 14.230469 11.082031 14.230469 Z M 18.226562 20.433594 L 18.1875 20.433594 C 18.1875 20.023438 18.195312 19.617188 18.1875 19.207031 C 18.183594 18.964844 18.058594 18.875 17.808594 18.910156 C 17.523438 18.949219 17.234375 18.964844 16.945312 18.984375 C 16.296875 19.027344 15.648438 19.078125 14.996094 19.109375 C 14.738281 19.121094 14.664062 19.238281 14.683594 19.472656 C 14.746094 20.261719 14.804688 21.050781 14.867188 21.839844 C 14.882812 22.089844 15.070312 22.074219 15.238281 22.066406 C 16.128906 22.007812 17.019531 21.9375 17.910156 21.890625 C 18.171875 21.875 18.234375 21.746094 18.230469 21.519531 C 18.222656 21.15625 18.226562 20.796875 18.226562 20.433594 Z M 10.433594 9.761719 C 9.976562 9.761719 9.519531 9.769531 9.0625 9.757812 C 8.804688 9.753906 8.714844 9.855469 8.757812 10.105469 C 8.902344 10.878906 9.050781 11.652344 9.183594 12.425781 C 9.226562 12.699219 9.371094 12.78125 9.625 12.777344 C 10.445312 12.773438 11.265625 12.769531 12.082031 12.777344 C 12.347656 12.78125 12.414062 12.65625 12.394531 12.425781 C 12.332031 11.664062 12.269531 10.898438 12.21875 10.136719 C 12.199219 9.871094 12.082031 9.753906 11.808594 9.757812 C 11.351562 9.769531 10.894531 9.761719 10.433594 9.761719 Z M 23.304688 20.109375 C 23.304688 19.664062 23.308594 19.253906 23.304688 18.84375 C 23.304688 18.675781 23.226562 18.605469 23.03125 18.621094 C 22.355469 18.667969 21.679688 18.6875 21.003906 18.730469 C 20.691406 18.75 20.382812 18.808594 20.070312 18.828125 C 19.847656 18.839844 19.792969 18.953125 19.796875 19.152344 C 19.8125 19.828125 19.8125 20.5 19.828125 21.175781 C 19.832031 21.292969 19.84375 21.425781 19.902344 21.523438 C 19.953125 21.601562 20.074219 21.695312 20.160156 21.691406 C 20.761719 21.664062 21.367188 21.628906 21.96875 21.566406 C 22.390625 21.519531 22.8125 21.429688 23.230469 21.363281 C 23.257812 20.929688 23.28125 20.5 23.304688 20.109375 Z M 24.898438 19.949219 L 24.878906 19.949219 C 24.878906 20.261719 24.878906 20.574219 24.878906 20.886719 C 24.886719 21.304688 24.890625 21.324219 25.269531 21.292969 C 26.207031 21.21875 27.140625 21.121094 28.078125 21.035156 C 28.238281 21.023438 28.34375 20.96875 28.359375 20.785156 C 28.410156 20.113281 28.476562 19.445312 28.515625 18.777344 C 28.539062 18.351562 28.480469 18.316406 28.078125 18.351562 C 27.839844 18.375 27.597656 18.394531 27.359375 18.402344 C 26.851562 18.421875 26.339844 18.410156 25.835938 18.453125 C 24.914062 18.535156 24.914062 18.550781 24.898438 19.445312 C 24.898438 19.613281 24.902344 19.78125 24.902344 19.949219 Z M 32.597656 9.761719 C 32.210938 9.761719 31.824219 9.757812 31.4375 9.761719 C 31.011719 9.769531 30.980469 9.769531 30.925781 10.171875 C 30.832031 10.933594 30.777344 11.699219 30.703125 12.460938 C 30.683594 12.667969 30.761719 12.777344 30.980469 12.773438 C 31.757812 12.773438 32.53125 12.769531 33.304688 12.777344 C 33.570312 12.78125 33.695312 12.671875 33.738281 12.410156 C 33.867188 11.632812 34.011719 10.855469 34.15625 10.078125 C 34.195312 9.871094 34.136719 9.757812 33.90625 9.757812 C 33.46875 9.765625 33.03125 9.761719 32.597656 9.761719 Z M 13.238281 21.804688 C 13.1875 21.109375 13.136719 20.414062 13.078125 19.722656 C 13.070312 19.628906 13.019531 19.539062 13.007812 19.441406 C 12.984375 19.230469 12.875 19.160156 12.667969 19.179688 C 12.066406 19.226562 11.460938 19.257812 10.859375 19.296875 C 10.484375 19.320312 10.4375 19.367188 10.5 19.734375 C 10.636719 20.535156 10.789062 21.335938 10.933594 22.140625 C 10.964844 22.335938 11.066406 22.441406 11.273438 22.425781 C 11.777344 22.386719 12.285156 22.347656 12.789062 22.308594 C 13.261719 22.273438 13.261719 22.273438 13.238281 21.804688 Z M 32.003906 14.230469 C 31.617188 14.230469 31.230469 14.234375 30.84375 14.230469 C 30.632812 14.226562 30.550781 14.324219 30.535156 14.53125 C 30.484375 15.171875 30.417969 15.816406 30.363281 16.464844 C 30.339844 16.746094 30.398438 16.8125 30.664062 16.792969 C 31.046875 16.761719 31.429688 16.722656 31.816406 16.695312 C 32.105469 16.679688 32.398438 16.695312 32.683594 16.65625 C 32.800781 16.640625 32.96875 16.519531 32.992188 16.421875 C 33.121094 15.8125 33.214844 15.195312 33.320312 14.582031 C 33.363281 14.34375 33.285156 14.21875 33.023438 14.226562 C 32.683594 14.238281 32.34375 14.230469 32.003906 14.230469 Z M 30.453125 20.875 C 30.972656 20.824219 31.453125 20.777344 31.933594 20.738281 C 32.128906 20.71875 32.25 20.636719 32.28125 20.441406 C 32.402344 19.730469 32.527344 19.023438 32.636719 18.3125 C 32.644531 18.257812 32.554688 18.128906 32.511719 18.132812 C 31.789062 18.164062 31.066406 18.207031 30.347656 18.257812 C 30.164062 18.273438 30.144531 18.429688 30.132812 18.582031 C 30.085938 19.152344 30.03125 19.726562 29.984375 20.300781 C 29.976562 20.421875 29.949219 20.546875 29.984375 20.65625 C 30.015625 20.746094 30.117188 20.828125 30.207031 20.867188 C 30.289062 20.902344 30.394531 20.875 30.453125 20.875 Z M 30.453125 20.875 " fill-opacity="1" fill-rule="nonzero"/></g><g clip-path="url(#a20540de1d)"><path fill="#000000" d="M 22.027344 28.695312 C 18.324219 28.695312 14.617188 28.6875 10.910156 28.703125 C 10.164062 28.707031 9.546875 28.488281 9.03125 27.949219 C 8.304688 27.191406 8.25 25.992188 8.769531 25.0625 C 8.957031 24.726562 9.167969 24.402344 9.332031 24.054688 C 9.414062 23.882812 9.441406 23.703125 9.417969 23.515625 C 8.921875 20.753906 8.410156 17.996094 7.917969 15.238281 C 7.460938 12.6875 7.019531 10.136719 6.570312 7.585938 C 6.421875 6.734375 6.265625 5.886719 6.125 5.035156 C 6.070312 4.710938 5.925781 4.539062 5.582031 4.484375 C 4.628906 4.328125 3.683594 4.140625 2.734375 3.964844 C 2.449219 3.914062 2.164062 3.875 1.882812 3.8125 C 1.433594 3.714844 1.152344 3.34375 1.199219 2.933594 C 1.25 2.503906 1.648438 2.179688 2.136719 2.238281 C 2.734375 2.3125 3.324219 2.433594 3.917969 2.539062 C 4.960938 2.726562 6.003906 2.925781 7.050781 3.105469 C 7.300781 3.148438 7.421875 3.25 7.464844 3.507812 C 7.582031 4.21875 7.730469 4.921875 7.859375 5.628906 C 8.242188 7.730469 8.628906 9.828125 9.003906 11.929688 C 9.464844 14.550781 9.910156 17.175781 10.371094 19.796875 C 10.597656 21.070312 10.839844 22.339844 11.078125 23.609375 C 11.140625 23.945312 11.132812 24.246094 10.921875 24.554688 C 10.640625 24.96875 10.453125 25.449219 10.175781 25.871094 C 9.84375 26.375 10.144531 27.167969 10.914062 27.101562 C 11.082031 27.085938 11.25 27.101562 11.421875 27.101562 L 33.074219 27.101562 C 33.269531 27.101562 33.464844 27.085938 33.65625 27.113281 C 33.871094 27.140625 34.042969 27.242188 34.179688 27.414062 C 34.3125 27.582031 34.367188 27.777344 34.34375 27.992188 C 34.304688 28.425781 34.046875 28.667969 33.582031 28.691406 C 33.390625 28.703125 33.195312 28.695312 33 28.695312 Z M 22.027344 28.695312 " fill-opacity="1" fill-rule="nonzero"/></g><g clip-path="url(#23747d7676)"><path fill="#000000" d="M 28.371094 32.046875 C 28.269531 30.808594 29.464844 29.355469 31.007812 29.382812 C 32.476562 29.402344 33.691406 30.429688 33.710938 31.984375 C 33.734375 33.449219 32.714844 34.691406 31.039062 34.691406 C 29.296875 34.691406 28.308594 33.25 28.371094 32.046875 Z M 31.0625 30.828125 C 30.335938 30.828125 29.808594 31.347656 29.820312 32.046875 C 29.832031 32.714844 30.402344 33.261719 31.09375 33.265625 C 31.660156 33.265625 32.285156 32.605469 32.28125 32.015625 C 32.273438 31.382812 31.707031 30.832031 31.058594 30.828125 Z M 31.0625 30.828125 " fill-opacity="1" fill-rule="nonzero"/></g><g clip-path="url(#64945e2d9c)"><path fill="#000000" d="M 16.042969 32.054688 C 16.039062 33.507812 14.851562 34.722656 13.449219 34.714844 C 11.917969 34.707031 10.789062 33.53125 10.746094 32.007812 C 10.703125 30.589844 11.992188 29.355469 13.417969 29.367188 C 14.789062 29.378906 16.171875 30.632812 16.042969 32.054688 Z M 14.59375 32.121094 C 14.625 31.425781 14.167969 30.871094 13.527344 30.832031 C 12.796875 30.789062 12.25 31.257812 12.207031 31.941406 C 12.160156 32.644531 12.632812 33.203125 13.351562 33.238281 C 13.511719 33.25 13.664062 33.230469 13.8125 33.179688 C 13.960938 33.128906 14.097656 33.046875 14.214844 32.941406 C 14.332031 32.835938 14.421875 32.714844 14.488281 32.570312 C 14.554688 32.425781 14.589844 32.277344 14.59375 32.121094 Z M 14.59375 32.121094 " fill-opacity="1" fill-rule="nonzero"/></g></svg>