<svg xmlns="http://www.w3.org/2000/svg" xmlns:xlink="http://www.w3.org/1999/xlink" width="50" zoomAndPan="magnify" viewBox="0 0 37.5 37.499999" height="50" preserveAspectRatio="xMidYMid meet" version="1.0"><defs><clipPath id="4d67bea760"><path d="M 1.367188 16 L 35.410156 16 L 35.410156 35.800781 L 1.367188 35.800781 Z M 1.367188 16 " clip-rule="nonzero"/></clipPath><clipPath id="b5b1fea9a8"><path d="M 7 1.015625 L 29 1.015625 L 29 21 L 7 21 Z M 7 1.015625 " clip-rule="nonzero"/></clipPath></defs><g clip-path="url(#4d67bea760)"><path fill="#000000" d="M 31.808594 16.992188 C 28.691406 16.992188 26.15625 19.53125 26.15625 22.648438 L 26.15625 23.683594 C 24.90625 23.234375 22.488281 22.648438 18.386719 22.648438 C 14.289062 22.648438 11.871094 23.234375 10.621094 23.683594 L 10.621094 22.648438 C 10.621094 19.53125 8.085938 16.992188 4.96875 16.992188 C 3.023438 16.992188 1.4375 18.578125 1.4375 20.527344 C 1.4375 21.960938 2.292969 23.242188 3.613281 23.792969 C 4.007812 23.957031 4.261719 24.34375 4.261719 24.769531 L 4.96875 27.597656 C 4.96875 30.136719 6.890625 32.234375 9.351562 32.511719 C 8.773438 32.789062 8.367188 33.378906 8.367188 34.066406 C 8.367188 35.015625 9.140625 35.789062 10.089844 35.789062 C 11.042969 35.789062 11.8125 35.015625 11.8125 34.066406 C 11.8125 33.402344 11.4375 32.835938 10.890625 32.546875 L 25.886719 32.546875 C 25.34375 32.835938 24.964844 33.402344 24.964844 34.066406 C 24.964844 35.015625 25.738281 35.789062 26.6875 35.789062 C 27.640625 35.789062 28.410156 35.015625 28.410156 34.066406 C 28.410156 33.378906 28.007812 32.789062 27.425781 32.511719 C 29.886719 32.234375 31.808594 30.136719 31.808594 27.597656 L 32.511719 24.769531 C 32.511719 24.339844 32.769531 23.957031 33.164062 23.792969 C 34.484375 23.242188 35.339844 21.960938 35.339844 20.527344 C 35.339844 18.578125 33.753906 16.992188 31.808594 16.992188 Z M 31.808594 16.992188 " fill-opacity="1" fill-rule="nonzero"/></g><g clip-path="url(#b5b1fea9a8)"><path fill="#000000" d="M 12.5625 20.996094 C 14.03125 20.726562 15.945312 20.527344 18.386719 20.527344 C 20.832031 20.527344 22.746094 20.726562 24.214844 20.996094 C 24.769531 18.4375 26.589844 16.347656 28.984375 15.410156 L 28.984375 11.636719 C 28.984375 5.777344 24.238281 1.03125 18.386719 1.03125 C 12.539062 1.03125 7.792969 5.777344 7.792969 11.636719 L 7.792969 15.410156 C 10.1875 16.347656 12.007812 18.4375 12.5625 20.996094 Z M 12.5625 20.996094 " fill-opacity="1" fill-rule="nonzero"/></g></svg>