<svg xmlns="http://www.w3.org/2000/svg" xmlns:xlink="http://www.w3.org/1999/xlink" width="50" zoomAndPan="magnify" viewBox="0 0 37.5 37.499999" height="50" preserveAspectRatio="xMidYMid meet" version="1.0"><defs><clipPath id="9e176f9a45"><path d="M 0.894531 18 L 34 18 L 34 36.441406 L 0.894531 36.441406 Z M 0.894531 18 " clip-rule="nonzero"/></clipPath><clipPath id="cc063b3bf8"><path d="M 30 0.914062 L 32 0.914062 L 32 4 L 30 4 Z M 30 0.914062 " clip-rule="nonzero"/></clipPath><clipPath id="2045917134"><path d="M 34 5 L 36.417969 5 L 36.417969 8 L 34 8 Z M 34 5 " clip-rule="nonzero"/></clipPath></defs><g clip-path="url(#9e176f9a45)"><path fill="#000000" d="M 30.277344 27.929688 C 30.199219 27.707031 29.992188 27.558594 29.757812 27.558594 L 9.015625 27.558594 L 4.183594 18.960938 C 4.085938 18.785156 3.902344 18.679688 3.703125 18.679688 L 1.484375 18.679688 C 1.289062 18.679688 1.105469 18.78125 1.003906 18.953125 C 0.90625 19.121094 0.90625 19.332031 1 19.503906 L 5.867188 28.167969 L 3.179688 35.699219 C 3.121094 35.871094 3.144531 36.058594 3.25 36.207031 C 3.351562 36.355469 3.519531 36.441406 3.703125 36.441406 L 5.917969 36.441406 C 6.144531 36.441406 6.347656 36.304688 6.433594 36.09375 L 8.511719 30.890625 L 27.71875 30.890625 L 29.796875 36.09375 C 29.878906 36.304688 30.085938 36.441406 30.3125 36.441406 L 32.53125 36.441406 C 32.710938 36.441406 32.878906 36.355469 32.984375 36.207031 C 33.085938 36.058594 33.113281 35.871094 33.050781 35.699219 Z M 30.277344 27.929688 " fill-opacity="1" fill-rule="nonzero"/></g><path fill="#000000" d="M 33.082031 6.464844 C 33.082031 6.761719 33.027344 7.042969 32.914062 7.316406 C 32.800781 7.585938 32.640625 7.828125 32.433594 8.035156 C 32.226562 8.246094 31.988281 8.40625 31.714844 8.515625 C 31.441406 8.628906 31.160156 8.6875 30.867188 8.6875 C 30.570312 8.6875 30.289062 8.628906 30.019531 8.515625 C 29.746094 8.40625 29.507812 8.246094 29.296875 8.035156 C 29.089844 7.828125 28.929688 7.585938 28.816406 7.316406 C 28.703125 7.042969 28.648438 6.761719 28.648438 6.464844 C 28.648438 6.171875 28.703125 5.886719 28.816406 5.617188 C 28.929688 5.34375 29.089844 5.105469 29.296875 4.894531 C 29.507812 4.6875 29.746094 4.527344 30.019531 4.414062 C 30.289062 4.300781 30.570312 4.246094 30.867188 4.246094 C 31.160156 4.246094 31.441406 4.300781 31.714844 4.414062 C 31.988281 4.527344 32.226562 4.6875 32.433594 4.894531 C 32.640625 5.105469 32.800781 5.34375 32.914062 5.617188 C 33.027344 5.886719 33.082031 6.171875 33.082031 6.464844 Z M 33.082031 6.464844 " fill-opacity="1" fill-rule="nonzero"/><g clip-path="url(#cc063b3bf8)"><path fill="#000000" d="M 30.867188 3.136719 C 31.171875 3.136719 31.421875 2.886719 31.421875 2.582031 L 31.421875 1.46875 C 31.421875 1.164062 31.171875 0.914062 30.867188 0.914062 C 30.558594 0.914062 30.3125 1.164062 30.3125 1.46875 L 30.3125 2.582031 C 30.3125 2.886719 30.558594 3.136719 30.867188 3.136719 Z M 30.867188 3.136719 " fill-opacity="1" fill-rule="nonzero"/></g><path fill="#000000" d="M 30.3125 10.351562 L 30.3125 11.460938 C 30.3125 11.769531 30.558594 12.015625 30.867188 12.015625 C 31.171875 12.015625 31.421875 11.769531 31.421875 11.460938 L 31.421875 10.351562 C 31.421875 10.046875 31.171875 9.796875 30.867188 9.796875 C 30.558594 9.796875 30.3125 10.046875 30.3125 10.351562 Z M 30.3125 10.351562 " fill-opacity="1" fill-rule="nonzero"/><path fill="#000000" d="M 27.730469 4.109375 C 27.839844 4.21875 27.980469 4.273438 28.121094 4.273438 C 28.265625 4.273438 28.40625 4.21875 28.515625 4.109375 C 28.730469 3.894531 28.730469 3.542969 28.515625 3.328125 L 27.730469 2.542969 C 27.515625 2.324219 27.164062 2.324219 26.945312 2.542969 C 26.730469 2.757812 26.730469 3.109375 26.945312 3.328125 Z M 27.730469 4.109375 " fill-opacity="1" fill-rule="nonzero"/><path fill="#000000" d="M 34.003906 8.820312 C 33.785156 8.605469 33.433594 8.605469 33.21875 8.820312 C 33.003906 9.039062 33.003906 9.390625 33.21875 9.605469 L 34.003906 10.390625 C 34.109375 10.5 34.253906 10.554688 34.394531 10.554688 C 34.535156 10.554688 34.679688 10.5 34.785156 10.390625 C 35.003906 10.175781 35.003906 9.824219 34.785156 9.605469 Z M 34.003906 8.820312 " fill-opacity="1" fill-rule="nonzero"/><path fill="#000000" d="M 25.875 7.019531 L 26.984375 7.019531 C 27.292969 7.019531 27.539062 6.773438 27.539062 6.464844 C 27.539062 6.160156 27.292969 5.910156 26.984375 5.910156 L 25.875 5.910156 C 25.570312 5.910156 25.324219 6.160156 25.324219 6.464844 C 25.324219 6.773438 25.570312 7.019531 25.875 7.019531 Z M 25.875 7.019531 " fill-opacity="1" fill-rule="nonzero"/><g clip-path="url(#2045917134)"><path fill="#000000" d="M 35.855469 5.910156 L 34.746094 5.910156 C 34.441406 5.910156 34.191406 6.160156 34.191406 6.464844 C 34.191406 6.773438 34.441406 7.019531 34.746094 7.019531 L 35.855469 7.019531 C 36.160156 7.019531 36.410156 6.773438 36.410156 6.464844 C 36.410156 6.160156 36.160156 5.910156 35.855469 5.910156 Z M 35.855469 5.910156 " fill-opacity="1" fill-rule="nonzero"/></g><path fill="#000000" d="M 27.730469 8.820312 L 26.945312 9.605469 C 26.730469 9.824219 26.730469 10.175781 26.945312 10.390625 C 27.054688 10.5 27.195312 10.554688 27.339844 10.554688 C 27.480469 10.554688 27.621094 10.5 27.730469 10.390625 L 28.515625 9.605469 C 28.730469 9.390625 28.730469 9.039062 28.515625 8.820312 C 28.296875 8.605469 27.945312 8.605469 27.730469 8.820312 Z M 27.730469 8.820312 " fill-opacity="1" fill-rule="nonzero"/><path fill="#000000" d="M 33.609375 4.273438 C 33.753906 4.273438 33.894531 4.21875 34.003906 4.109375 L 34.785156 3.328125 C 35.003906 3.109375 35.003906 2.757812 34.785156 2.542969 C 34.570312 2.324219 34.21875 2.324219 34.003906 2.542969 L 33.21875 3.328125 C 33.003906 3.542969 33.003906 3.894531 33.21875 4.109375 C 33.328125 4.21875 33.46875 4.273438 33.609375 4.273438 Z M 33.609375 4.273438 " fill-opacity="1" fill-rule="nonzero"/><path fill="#000000" d="M 19.222656 13.683594 L 23.105469 13.683594 C 23.277344 13.683594 23.441406 13.601562 23.546875 13.460938 C 23.652344 13.324219 23.6875 13.144531 23.636719 12.976562 C 23.617188 12.902344 23.121094 11.175781 21.644531 9.4375 C 20.628906 8.238281 18.988281 6.871094 16.519531 6.25 C 18.605469 8.679688 19.1875 13.351562 19.21875 13.617188 C 19.222656 13.636719 19.222656 13.660156 19.222656 13.683594 Z M 19.222656 13.683594 " fill-opacity="1" fill-rule="nonzero"/><path fill="#000000" d="M 4.257812 13.683594 L 8.136719 13.683594 C 8.136719 13.660156 8.136719 13.636719 8.140625 13.617188 C 8.171875 13.351562 8.757812 8.679688 10.84375 6.25 C 8.371094 6.871094 6.730469 8.238281 5.714844 9.4375 C 4.242188 11.175781 3.742188 12.902344 3.722656 12.976562 C 3.675781 13.144531 3.710938 13.324219 3.8125 13.460938 C 3.917969 13.601562 4.082031 13.683594 4.253906 13.683594 Z M 4.257812 13.683594 " fill-opacity="1" fill-rule="nonzero"/><path fill="#000000" d="M 13.125 13.683594 L 13.125 26.449219 L 14.234375 26.449219 L 14.234375 13.683594 L 18.113281 13.683594 C 17.851562 11.609375 16.695312 6.644531 14.234375 5.984375 L 14.234375 5.355469 C 14.234375 5.050781 13.988281 4.800781 13.679688 4.800781 C 13.375 4.800781 13.125 5.050781 13.125 5.355469 L 13.125 5.984375 C 10.664062 6.644531 9.507812 11.605469 9.25 13.683594 Z M 13.125 13.683594 " fill-opacity="1" fill-rule="nonzero"/></svg>