<svg xmlns="http://www.w3.org/2000/svg" xmlns:xlink="http://www.w3.org/1999/xlink" width="50" zoomAndPan="magnify" viewBox="0 0 37.5 37.499999" height="50" preserveAspectRatio="xMidYMid meet" version="1.0"><defs><clipPath id="d5623e84f6"><path d="M 1.402344 4.660156 L 35.449219 4.660156 L 35.449219 22 L 1.402344 22 Z M 1.402344 4.660156 " clip-rule="nonzero"/></clipPath><clipPath id="62ab0a838d"><path d="M 6 10 L 31 10 L 31 33.527344 L 6 33.527344 Z M 6 10 " clip-rule="nonzero"/></clipPath></defs><g clip-path="url(#d5623e84f6)"><path fill="#100f0d" d="M 34.703125 18.367188 L 19.46875 5.050781 C 19.460938 5.042969 19.449219 5.035156 19.4375 5.027344 C 19.414062 5.007812 19.390625 4.988281 19.367188 4.96875 C 19.347656 4.957031 19.328125 4.941406 19.308594 4.929688 C 19.285156 4.914062 19.261719 4.898438 19.234375 4.882812 C 19.214844 4.871094 19.191406 4.859375 19.171875 4.847656 C 19.148438 4.835938 19.125 4.820312 19.101562 4.8125 C 19.074219 4.800781 19.050781 4.789062 19.027344 4.777344 C 19.003906 4.769531 18.980469 4.761719 18.960938 4.753906 C 18.933594 4.742188 18.90625 4.734375 18.878906 4.726562 C 18.855469 4.71875 18.835938 4.714844 18.8125 4.707031 C 18.785156 4.703125 18.757812 4.695312 18.726562 4.6875 C 18.707031 4.683594 18.683594 4.683594 18.664062 4.679688 C 18.632812 4.671875 18.605469 4.671875 18.578125 4.667969 C 18.554688 4.664062 18.53125 4.664062 18.507812 4.664062 C 18.480469 4.660156 18.453125 4.660156 18.425781 4.660156 C 18.402344 4.660156 18.378906 4.660156 18.351562 4.664062 C 18.328125 4.664062 18.300781 4.664062 18.277344 4.667969 C 18.25 4.671875 18.226562 4.671875 18.199219 4.675781 C 18.175781 4.679688 18.152344 4.683594 18.125 4.691406 C 18.101562 4.695312 18.074219 4.703125 18.046875 4.707031 C 18.023438 4.714844 18 4.71875 17.976562 4.726562 C 17.953125 4.734375 17.925781 4.742188 17.902344 4.75 C 17.878906 4.761719 17.851562 4.769531 17.828125 4.78125 C 17.804688 4.789062 17.785156 4.796875 17.761719 4.808594 C 17.734375 4.820312 17.710938 4.835938 17.683594 4.847656 C 17.664062 4.859375 17.644531 4.871094 17.625 4.882812 C 17.597656 4.898438 17.570312 4.914062 17.546875 4.929688 C 17.527344 4.941406 17.511719 4.957031 17.492188 4.96875 C 17.46875 4.988281 17.441406 5.007812 17.417969 5.027344 C 17.410156 5.035156 17.398438 5.042969 17.386719 5.050781 L 12.394531 9.417969 L 12.394531 7.660156 C 12.394531 7.183594 12.007812 6.792969 11.535156 6.792969 L 8.585938 6.792969 C 8.113281 6.792969 7.726562 7.183594 7.726562 7.660156 L 7.726562 13.496094 L 2.152344 18.367188 C 1.488281 18.949219 1.414062 19.96875 1.988281 20.640625 C 2.304688 21.011719 2.746094 21.203125 3.195312 21.203125 C 3.5625 21.203125 3.933594 21.074219 4.234375 20.808594 L 18.429688 8.402344 L 32.621094 20.808594 C 32.921875 21.074219 33.292969 21.203125 33.664062 21.203125 C 34.109375 21.203125 34.554688 21.011719 34.871094 20.640625 C 35.445312 19.96875 35.371094 18.949219 34.703125 18.367188 " fill-opacity="1" fill-rule="nonzero"/></g><g clip-path="url(#62ab0a838d)"><path fill="#100f0d" d="M 24.453125 22.457031 C 24.25 24.605469 19.566406 28.628906 18.429688 30.699219 C 17.289062 28.628906 12.609375 24.605469 12.40625 22.457031 C 12.203125 20.304688 13.601562 18.957031 15.328125 18.957031 C 16.648438 18.957031 17.941406 20.039062 18.398438 21.3125 C 18.410156 21.34375 18.421875 21.394531 18.429688 21.457031 C 18.4375 21.394531 18.449219 21.34375 18.460938 21.3125 C 18.917969 20.039062 20.210938 18.957031 21.53125 18.957031 C 23.257812 18.957031 24.65625 20.304688 24.453125 22.457031 M 29.386719 20.0625 L 19.355469 11.292969 C 18.847656 10.847656 18.011719 10.847656 17.5 11.292969 L 7.472656 20.0625 C 6.960938 20.507812 6.542969 21.429688 6.542969 22.113281 L 6.542969 32.285156 C 6.542969 32.96875 7.09375 33.527344 7.769531 33.527344 L 29.089844 33.527344 C 29.761719 33.527344 30.316406 32.96875 30.316406 32.285156 L 30.316406 22.113281 C 30.316406 21.429688 29.898438 20.507812 29.386719 20.0625 " fill-opacity="1" fill-rule="nonzero"/></g></svg>